<svg width="800" height="242" viewBox="0 0 800 242" fill="none" xmlns="http://www.w3.org/2000/svg">
<rect width="800" height="242" rx="15" fill="#8368EE"/>
<rect width="800" height="242" rx="15" fill="url(#paint0_diamond_143_162)" fill-opacity="0.2"/>
<path d="M242.436 108.144L238.188 111.204C238.764 112.404 239.568 113.508 240.6 114.516C241.632 115.524 242.844 116.328 244.236 116.928C245.652 117.504 247.176 117.792 248.808 117.792C249.984 117.792 251.124 117.612 252.228 117.252C253.356 116.916 254.352 116.412 255.216 115.74C256.104 115.068 256.8 114.24 257.304 113.256C257.832 112.248 258.096 111.108 258.096 109.836C258.096 108.78 257.928 107.844 257.592 107.028C257.256 106.212 256.788 105.492 256.188 104.868C255.612 104.244 254.94 103.716 254.172 103.284C253.404 102.828 252.576 102.432 251.688 102.096C250.512 101.688 249.504 101.304 248.664 100.944C247.848 100.584 247.212 100.188 246.756 99.756C246.324 99.324 246.108 98.82 246.108 98.244C246.108 97.692 246.336 97.236 246.792 96.876C247.248 96.492 247.908 96.3 248.772 96.3C249.42 96.3 250.02 96.432 250.572 96.696C251.148 96.936 251.664 97.284 252.12 97.74C252.6 98.172 253.02 98.688 253.38 99.288L258.024 96.696C257.592 95.832 256.968 94.98 256.152 94.14C255.336 93.3 254.304 92.604 253.056 92.052C251.832 91.5 250.38 91.224 248.7 91.224C247.068 91.224 245.58 91.512 244.236 92.088C242.916 92.64 241.86 93.456 241.068 94.536C240.3 95.616 239.916 96.9 239.916 98.388C239.916 99.636 240.144 100.704 240.6 101.592C241.056 102.456 241.632 103.2 242.328 103.824C243.024 104.424 243.756 104.916 244.524 105.3C245.316 105.684 246.012 105.984 246.612 106.2C247.836 106.656 248.82 107.064 249.564 107.424C250.308 107.784 250.848 108.168 251.184 108.576C251.52 108.96 251.688 109.476 251.688 110.124C251.688 110.892 251.4 111.504 250.824 111.96C250.248 112.392 249.516 112.608 248.628 112.608C247.788 112.608 246.984 112.428 246.216 112.068C245.472 111.708 244.776 111.192 244.128 110.52C243.504 109.848 242.94 109.056 242.436 108.144ZM270.048 117.36C272.16 117.36 273.948 116.952 275.412 116.136C276.9 115.32 278.076 114.096 278.94 112.464L274.08 111.276C273.672 111.996 273.12 112.536 272.424 112.896C271.752 113.256 270.936 113.436 269.976 113.436C269.136 113.436 268.428 113.256 267.852 112.896C267.276 112.512 266.844 111.96 266.556 111.24C266.268 110.52 266.124 109.656 266.124 108.648C266.148 107.544 266.292 106.632 266.556 105.912C266.844 105.168 267.264 104.616 267.816 104.256C268.368 103.896 269.052 103.716 269.868 103.716C270.516 103.716 271.08 103.86 271.56 104.148C272.04 104.436 272.412 104.844 272.676 105.372C272.94 105.9 273.072 106.524 273.072 107.244C273.072 107.412 273.024 107.628 272.928 107.892C272.856 108.132 272.76 108.336 272.64 108.504L273.936 106.848H263.712V109.872H278.832C278.88 109.704 278.904 109.5 278.904 109.26C278.904 108.996 278.904 108.732 278.904 108.468C278.904 106.692 278.556 105.18 277.86 103.932C277.164 102.684 276.156 101.736 274.836 101.088C273.516 100.416 271.896 100.08 269.976 100.08C268.056 100.08 266.388 100.428 264.972 101.124C263.58 101.82 262.512 102.816 261.768 104.112C261.024 105.408 260.652 106.944 260.652 108.72C260.652 110.472 261.036 111.996 261.804 113.292C262.572 114.588 263.652 115.596 265.044 116.316C266.46 117.012 268.128 117.36 270.048 117.36ZM286.473 111.816C286.473 111.408 286.569 111.072 286.761 110.808C286.953 110.52 287.241 110.304 287.625 110.16C288.009 110.016 288.525 109.944 289.173 109.944C290.013 109.944 290.805 110.064 291.549 110.304C292.317 110.52 292.989 110.844 293.565 111.276V108.864C293.277 108.552 292.845 108.252 292.269 107.964C291.693 107.676 290.997 107.436 290.181 107.244C289.389 107.052 288.489 106.956 287.481 106.956C285.417 106.956 283.821 107.424 282.693 108.36C281.565 109.272 281.001 110.52 281.001 112.104C281.001 113.232 281.265 114.192 281.793 114.984C282.345 115.776 283.065 116.376 283.953 116.784C284.865 117.168 285.849 117.36 286.905 117.36C287.961 117.36 288.945 117.18 289.857 116.82C290.769 116.436 291.513 115.884 292.089 115.164C292.665 114.42 292.953 113.52 292.953 112.464L292.377 110.304C292.377 111.072 292.209 111.72 291.873 112.248C291.537 112.776 291.105 113.172 290.577 113.436C290.049 113.7 289.473 113.832 288.849 113.832C288.417 113.832 288.021 113.76 287.661 113.616C287.301 113.448 287.013 113.22 286.797 112.932C286.581 112.62 286.473 112.248 286.473 111.816ZM284.061 105.516C284.301 105.372 284.685 105.192 285.213 104.976C285.741 104.736 286.353 104.532 287.049 104.364C287.769 104.196 288.501 104.112 289.245 104.112C289.749 104.112 290.193 104.16 290.577 104.256C290.985 104.352 291.321 104.508 291.585 104.724C291.849 104.94 292.041 105.204 292.161 105.516C292.305 105.804 292.377 106.152 292.377 106.56V117H297.597V105.336C297.597 104.184 297.261 103.212 296.589 102.42C295.917 101.628 295.005 101.028 293.853 100.62C292.701 100.188 291.393 99.972 289.929 99.972C288.369 99.972 286.929 100.176 285.609 100.584C284.289 100.992 283.161 101.424 282.225 101.88L284.061 105.516ZM307.031 100.44H301.667V117H307.031V100.44ZM311.819 106.056L314.159 101.412C313.871 100.98 313.451 100.644 312.899 100.404C312.347 100.164 311.771 100.044 311.171 100.044C310.259 100.044 309.383 100.344 308.543 100.944C307.703 101.544 307.019 102.36 306.491 103.392C305.987 104.424 305.735 105.6 305.735 106.92L307.031 108.828C307.031 108.036 307.139 107.364 307.355 106.812C307.571 106.26 307.883 105.84 308.291 105.552C308.699 105.264 309.167 105.12 309.695 105.12C310.175 105.12 310.571 105.204 310.883 105.372C311.219 105.54 311.531 105.768 311.819 106.056ZM320.512 108.72C320.512 107.904 320.704 107.172 321.088 106.524C321.472 105.876 322 105.36 322.672 104.976C323.368 104.592 324.112 104.4 324.904 104.4C325.504 104.4 326.116 104.496 326.74 104.688C327.364 104.88 327.94 105.156 328.468 105.516C329.02 105.876 329.464 106.32 329.8 106.848V101.52C329.224 101.112 328.504 100.776 327.64 100.512C326.776 100.224 325.72 100.08 324.472 100.08C322.648 100.08 321.004 100.44 319.54 101.16C318.1 101.88 316.96 102.888 316.12 104.184C315.304 105.456 314.896 106.968 314.896 108.72C314.896 110.448 315.304 111.96 316.12 113.256C316.96 114.552 318.1 115.56 319.54 116.28C321.004 117 322.648 117.36 324.472 117.36C325.72 117.36 326.776 117.228 327.64 116.964C328.504 116.676 329.224 116.304 329.8 115.848V110.556C329.464 111.084 329.032 111.528 328.504 111.888C328 112.248 327.436 112.536 326.812 112.752C326.212 112.944 325.576 113.04 324.904 113.04C324.112 113.04 323.368 112.86 322.672 112.5C322 112.14 321.472 111.648 321.088 111.024C320.704 110.376 320.512 109.608 320.512 108.72ZM339.201 88.92H333.729V117H339.201V88.92ZM344.493 106.92V117H349.929V106.128C349.929 104.76 349.737 103.608 349.353 102.672C348.969 101.736 348.357 101.028 347.517 100.548C346.701 100.068 345.609 99.828 344.241 99.828C342.873 99.828 341.745 100.152 340.857 100.8C339.993 101.424 339.345 102.276 338.913 103.356C338.481 104.412 338.265 105.6 338.265 106.92H339.201C339.201 106.272 339.321 105.732 339.561 105.3C339.801 104.844 340.137 104.496 340.569 104.256C341.001 103.992 341.505 103.86 342.081 103.86C342.969 103.86 343.593 104.124 343.953 104.652C344.313 105.18 344.493 105.936 344.493 106.92ZM363.543 100.44V104.94H374.847V100.44H363.543ZM374.235 94.14L376.431 90.144C376.191 89.904 375.867 89.652 375.459 89.388C375.051 89.1 374.559 88.86 373.983 88.668C373.407 88.452 372.699 88.344 371.859 88.344C370.491 88.344 369.339 88.584 368.403 89.064C367.491 89.544 366.795 90.228 366.315 91.116C365.859 92.004 365.631 93.072 365.631 94.32V117H370.851V95.688C370.851 95.112 370.923 94.644 371.067 94.284C371.211 93.924 371.403 93.66 371.643 93.492C371.907 93.324 372.219 93.24 372.579 93.24C372.891 93.24 373.179 93.312 373.443 93.456C373.731 93.6 373.995 93.828 374.235 94.14ZM376.422 108.72C376.422 110.448 376.83 111.96 377.646 113.256C378.462 114.552 379.59 115.56 381.03 116.28C382.47 117 384.09 117.36 385.89 117.36C387.69 117.36 389.298 117 390.714 116.28C392.154 115.56 393.282 114.552 394.098 113.256C394.938 111.96 395.358 110.448 395.358 108.72C395.358 106.968 394.938 105.444 394.098 104.148C393.282 102.852 392.154 101.844 390.714 101.124C389.298 100.404 387.69 100.044 385.89 100.044C384.09 100.044 382.47 100.404 381.03 101.124C379.59 101.844 378.462 102.852 377.646 104.148C376.83 105.444 376.422 106.968 376.422 108.72ZM382.002 108.72C382.002 107.856 382.182 107.112 382.542 106.488C382.902 105.864 383.37 105.384 383.946 105.048C384.522 104.712 385.17 104.544 385.89 104.544C386.586 104.544 387.222 104.712 387.798 105.048C388.398 105.384 388.866 105.864 389.202 106.488C389.562 107.112 389.742 107.856 389.742 108.72C389.742 109.584 389.562 110.328 389.202 110.952C388.866 111.552 388.398 112.02 387.798 112.356C387.222 112.692 386.586 112.86 385.89 112.86C385.17 112.86 384.522 112.692 383.946 112.356C383.37 112.02 382.902 111.552 382.542 110.952C382.182 110.328 382.002 109.584 382.002 108.72ZM396.684 100.44V104.94H407.772V100.44H396.684ZM399.6 94.68V117H404.82V94.68H399.6ZM437.838 100.44H432.258L426.966 113.688L429.774 113.724L424.41 100.44H418.434L425.598 115.668L421.566 124.92H427.038L437.838 100.44ZM438.156 108.72C438.156 110.448 438.564 111.96 439.38 113.256C440.196 114.552 441.324 115.56 442.764 116.28C444.204 117 445.824 117.36 447.624 117.36C449.424 117.36 451.032 117 452.448 116.28C453.888 115.56 455.016 114.552 455.832 113.256C456.672 111.96 457.092 110.448 457.092 108.72C457.092 106.968 456.672 105.444 455.832 104.148C455.016 102.852 453.888 101.844 452.448 101.124C451.032 100.404 449.424 100.044 447.624 100.044C445.824 100.044 444.204 100.404 442.764 101.124C441.324 101.844 440.196 102.852 439.38 104.148C438.564 105.444 438.156 106.968 438.156 108.72ZM443.736 108.72C443.736 107.856 443.916 107.112 444.276 106.488C444.636 105.864 445.104 105.384 445.68 105.048C446.256 104.712 446.904 104.544 447.624 104.544C448.32 104.544 448.956 104.712 449.532 105.048C450.132 105.384 450.6 105.864 450.936 106.488C451.296 107.112 451.476 107.856 451.476 108.72C451.476 109.584 451.296 110.328 450.936 110.952C450.6 111.552 450.132 112.02 449.532 112.356C448.956 112.692 448.32 112.86 447.624 112.86C446.904 112.86 446.256 112.692 445.68 112.356C445.104 112.02 444.636 111.552 444.276 110.952C443.916 110.328 443.736 109.584 443.736 108.72ZM466.05 110.52V100.44H460.362V111.096C460.362 113.064 460.83 114.612 461.766 115.74C462.726 116.844 464.238 117.396 466.302 117.396C467.526 117.396 468.546 117.144 469.362 116.64C470.178 116.112 470.838 115.404 471.342 114.516V117H476.778V100.44H471.342V110.52C471.342 111.168 471.222 111.72 470.982 112.176C470.742 112.632 470.406 112.98 469.974 113.22C469.566 113.46 469.062 113.58 468.462 113.58C467.574 113.58 466.95 113.316 466.59 112.788C466.23 112.236 466.05 111.48 466.05 110.52ZM486.433 100.44H481.069V117H486.433V100.44ZM491.221 106.056L493.561 101.412C493.273 100.98 492.853 100.644 492.301 100.404C491.749 100.164 491.173 100.044 490.573 100.044C489.661 100.044 488.785 100.344 487.945 100.944C487.105 101.544 486.421 102.36 485.893 103.392C485.389 104.424 485.137 105.6 485.137 106.92L486.433 108.828C486.433 108.036 486.541 107.364 486.757 106.812C486.973 106.26 487.285 105.84 487.693 105.552C488.101 105.264 488.569 105.12 489.097 105.12C489.577 105.12 489.973 105.204 490.285 105.372C490.621 105.54 490.933 105.768 491.221 106.056ZM505.187 100.44V104.94H516.491V100.44H505.187ZM515.879 94.14L518.075 90.144C517.835 89.904 517.511 89.652 517.103 89.388C516.695 89.1 516.203 88.86 515.627 88.668C515.051 88.452 514.343 88.344 513.503 88.344C512.135 88.344 510.983 88.584 510.047 89.064C509.135 89.544 508.439 90.228 507.959 91.116C507.503 92.004 507.275 93.072 507.275 94.32V117H512.495V95.688C512.495 95.112 512.567 94.644 512.711 94.284C512.855 93.924 513.047 93.66 513.287 93.492C513.551 93.324 513.863 93.24 514.223 93.24C514.535 93.24 514.823 93.312 515.087 93.456C515.375 93.6 515.639 93.828 515.879 94.14ZM523.25 111.816C523.25 111.408 523.346 111.072 523.538 110.808C523.73 110.52 524.018 110.304 524.402 110.16C524.786 110.016 525.302 109.944 525.95 109.944C526.79 109.944 527.582 110.064 528.326 110.304C529.094 110.52 529.766 110.844 530.342 111.276V108.864C530.054 108.552 529.622 108.252 529.046 107.964C528.47 107.676 527.774 107.436 526.958 107.244C526.166 107.052 525.266 106.956 524.258 106.956C522.194 106.956 520.598 107.424 519.47 108.36C518.342 109.272 517.778 110.52 517.778 112.104C517.778 113.232 518.042 114.192 518.57 114.984C519.122 115.776 519.842 116.376 520.73 116.784C521.642 117.168 522.626 117.36 523.682 117.36C524.738 117.36 525.722 117.18 526.634 116.82C527.546 116.436 528.29 115.884 528.866 115.164C529.442 114.42 529.73 113.52 529.73 112.464L529.154 110.304C529.154 111.072 528.986 111.72 528.65 112.248C528.314 112.776 527.882 113.172 527.354 113.436C526.826 113.7 526.25 113.832 525.626 113.832C525.194 113.832 524.798 113.76 524.438 113.616C524.078 113.448 523.79 113.22 523.574 112.932C523.358 112.62 523.25 112.248 523.25 111.816ZM520.838 105.516C521.078 105.372 521.462 105.192 521.99 104.976C522.518 104.736 523.13 104.532 523.826 104.364C524.546 104.196 525.278 104.112 526.022 104.112C526.526 104.112 526.97 104.16 527.354 104.256C527.762 104.352 528.098 104.508 528.362 104.724C528.626 104.94 528.818 105.204 528.938 105.516C529.082 105.804 529.154 106.152 529.154 106.56V117H534.374V105.336C534.374 104.184 534.038 103.212 533.366 102.42C532.694 101.628 531.782 101.028 530.63 100.62C529.478 100.188 528.17 99.972 526.706 99.972C525.146 99.972 523.706 100.176 522.386 100.584C521.066 100.992 519.938 101.424 519.002 101.88L520.838 105.516ZM536.037 100.44L545.649 118.944L555.225 100.44H549.429L545.649 109.62L541.833 100.44H536.037ZM555.754 108.72C555.754 110.448 556.162 111.96 556.978 113.256C557.794 114.552 558.922 115.56 560.362 116.28C561.802 117 563.422 117.36 565.222 117.36C567.022 117.36 568.63 117 570.046 116.28C571.486 115.56 572.614 114.552 573.43 113.256C574.27 111.96 574.69 110.448 574.69 108.72C574.69 106.968 574.27 105.444 573.43 104.148C572.614 102.852 571.486 101.844 570.046 101.124C568.63 100.404 567.022 100.044 565.222 100.044C563.422 100.044 561.802 100.404 560.362 101.124C558.922 101.844 557.794 102.852 556.978 104.148C556.162 105.444 555.754 106.968 555.754 108.72ZM561.334 108.72C561.334 107.856 561.514 107.112 561.874 106.488C562.234 105.864 562.702 105.384 563.278 105.048C563.854 104.712 564.502 104.544 565.222 104.544C565.918 104.544 566.554 104.712 567.13 105.048C567.73 105.384 568.198 105.864 568.534 106.488C568.894 107.112 569.074 107.856 569.074 108.72C569.074 109.584 568.894 110.328 568.534 110.952C568.198 111.552 567.73 112.02 567.13 112.356C566.554 112.692 565.918 112.86 565.222 112.86C564.502 112.86 563.854 112.692 563.278 112.356C562.702 112.02 562.234 111.552 561.874 110.952C561.514 110.328 561.334 109.584 561.334 108.72ZM583.324 100.44H577.96V117H583.324V100.44ZM588.112 106.056L590.452 101.412C590.164 100.98 589.744 100.644 589.192 100.404C588.64 100.164 588.064 100.044 587.464 100.044C586.552 100.044 585.676 100.344 584.836 100.944C583.996 101.544 583.312 102.36 582.784 103.392C582.28 104.424 582.028 105.6 582.028 106.92L583.324 108.828C583.324 108.036 583.432 107.364 583.648 106.812C583.864 106.26 584.176 105.84 584.584 105.552C584.992 105.264 585.46 105.12 585.988 105.12C586.468 105.12 586.864 105.204 587.176 105.372C587.512 105.54 587.824 105.768 588.112 106.056ZM592.437 94.212C592.437 95.076 592.749 95.784 593.373 96.336C593.997 96.888 594.741 97.164 595.605 97.164C596.493 97.164 597.237 96.888 597.837 96.336C598.461 95.784 598.773 95.076 598.773 94.212C598.773 93.348 598.461 92.652 597.837 92.124C597.237 91.572 596.493 91.296 595.605 91.296C594.741 91.296 593.997 91.572 593.373 92.124C592.749 92.652 592.437 93.348 592.437 94.212ZM592.977 100.44V117H598.233V100.44H592.977ZM600.766 100.44V104.94H611.854V100.44H600.766ZM603.682 94.68V117H608.902V94.68H603.682ZM622.595 117.36C624.707 117.36 626.495 116.952 627.959 116.136C629.447 115.32 630.623 114.096 631.487 112.464L626.627 111.276C626.219 111.996 625.667 112.536 624.971 112.896C624.299 113.256 623.483 113.436 622.523 113.436C621.683 113.436 620.975 113.256 620.399 112.896C619.823 112.512 619.391 111.96 619.103 111.24C618.815 110.52 618.671 109.656 618.671 108.648C618.695 107.544 618.839 106.632 619.103 105.912C619.391 105.168 619.811 104.616 620.363 104.256C620.915 103.896 621.599 103.716 622.415 103.716C623.063 103.716 623.627 103.86 624.107 104.148C624.587 104.436 624.959 104.844 625.223 105.372C625.487 105.9 625.619 106.524 625.619 107.244C625.619 107.412 625.571 107.628 625.475 107.892C625.403 108.132 625.307 108.336 625.187 108.504L626.483 106.848H616.259V109.872H631.379C631.427 109.704 631.451 109.5 631.451 109.26C631.451 108.996 631.451 108.732 631.451 108.468C631.451 106.692 631.103 105.18 630.407 103.932C629.711 102.684 628.703 101.736 627.383 101.088C626.063 100.416 624.443 100.08 622.523 100.08C620.603 100.08 618.935 100.428 617.519 101.124C616.127 101.82 615.059 102.816 614.315 104.112C613.571 105.408 613.199 106.944 613.199 108.72C613.199 110.472 613.583 111.996 614.351 113.292C615.119 114.588 616.199 115.596 617.591 116.316C619.007 117.012 620.675 117.36 622.595 117.36ZM643.657 100.44V104.94H654.745V100.44H643.657ZM646.573 94.68V117H651.793V94.68H646.573ZM656.09 108.72C656.09 110.448 656.498 111.96 657.313 113.256C658.13 114.552 659.258 115.56 660.698 116.28C662.138 117 663.758 117.36 665.558 117.36C667.358 117.36 668.966 117 670.382 116.28C671.822 115.56 672.95 114.552 673.766 113.256C674.606 111.96 675.026 110.448 675.026 108.72C675.026 106.968 674.606 105.444 673.766 104.148C672.95 102.852 671.822 101.844 670.382 101.124C668.966 100.404 667.358 100.044 665.558 100.044C663.758 100.044 662.138 100.404 660.698 101.124C659.258 101.844 658.13 102.852 657.313 104.148C656.498 105.444 656.09 106.968 656.09 108.72ZM661.67 108.72C661.67 107.856 661.85 107.112 662.21 106.488C662.57 105.864 663.038 105.384 663.614 105.048C664.19 104.712 664.838 104.544 665.558 104.544C666.254 104.544 666.89 104.712 667.466 105.048C668.066 105.384 668.534 105.864 668.87 106.488C669.23 107.112 669.41 107.856 669.41 108.72C669.41 109.584 669.23 110.328 668.87 110.952C668.534 111.552 668.066 112.02 667.466 112.356C666.89 112.692 666.254 112.86 665.558 112.86C664.838 112.86 664.19 112.692 663.614 112.356C663.038 112.02 662.57 111.552 662.21 110.952C661.85 110.328 661.67 109.584 661.67 108.72ZM683.696 124.92V100.44H678.26V124.92H683.696ZM697.232 108.72C697.232 106.776 696.848 105.156 696.08 103.86C695.336 102.54 694.364 101.544 693.164 100.872C691.988 100.2 690.716 99.864 689.348 99.864C687.908 99.864 686.66 100.236 685.604 100.98C684.572 101.7 683.78 102.72 683.228 104.04C682.676 105.36 682.4 106.92 682.4 108.72C682.4 110.496 682.676 112.056 683.228 113.4C683.78 114.72 684.572 115.752 685.604 116.496C686.66 117.216 687.908 117.576 689.348 117.576C690.716 117.576 691.988 117.24 693.164 116.568C694.364 115.896 695.336 114.9 696.08 113.58C696.848 112.26 697.232 110.64 697.232 108.72ZM691.508 108.72C691.508 109.584 691.328 110.316 690.968 110.916C690.608 111.516 690.128 111.972 689.528 112.284C688.928 112.596 688.268 112.752 687.548 112.752C686.924 112.752 686.312 112.608 685.712 112.32C685.136 112.008 684.656 111.552 684.272 110.952C683.888 110.352 683.696 109.608 683.696 108.72C683.696 107.832 683.888 107.088 684.272 106.488C684.656 105.888 685.136 105.444 685.712 105.156C686.312 104.844 686.924 104.688 687.548 104.688C688.268 104.688 688.928 104.844 689.528 105.156C690.128 105.468 690.608 105.924 690.968 106.524C691.328 107.124 691.508 107.856 691.508 108.72ZM700.191 94.212C700.191 95.076 700.503 95.784 701.127 96.336C701.751 96.888 702.495 97.164 703.359 97.164C704.247 97.164 704.991 96.888 705.591 96.336C706.215 95.784 706.527 95.076 706.527 94.212C706.527 93.348 706.215 92.652 705.591 92.124C704.991 91.572 704.247 91.296 703.359 91.296C702.495 91.296 701.751 91.572 701.127 92.124C700.503 92.652 700.191 93.348 700.191 94.212ZM700.731 100.44V117H705.987V100.44H700.731ZM715.036 108.72C715.036 107.904 715.228 107.172 715.612 106.524C715.996 105.876 716.524 105.36 717.196 104.976C717.892 104.592 718.636 104.4 719.428 104.4C720.028 104.4 720.64 104.496 721.264 104.688C721.888 104.88 722.464 105.156 722.992 105.516C723.544 105.876 723.988 106.32 724.324 106.848V101.52C723.748 101.112 723.028 100.776 722.164 100.512C721.3 100.224 720.244 100.08 718.996 100.08C717.172 100.08 715.528 100.44 714.064 101.16C712.624 101.88 711.484 102.888 710.644 104.184C709.828 105.456 709.42 106.968 709.42 108.72C709.42 110.448 709.828 111.96 710.644 113.256C711.484 114.552 712.624 115.56 714.064 116.28C715.528 117 717.172 117.36 718.996 117.36C720.244 117.36 721.3 117.228 722.164 116.964C723.028 116.676 723.748 116.304 724.324 115.848V110.556C723.988 111.084 723.556 111.528 723.028 111.888C722.524 112.248 721.96 112.536 721.336 112.752C720.736 112.944 720.1 113.04 719.428 113.04C718.636 113.04 717.892 112.86 717.196 112.5C716.524 112.14 715.996 111.648 715.612 111.024C715.228 110.376 715.036 109.608 715.036 108.72ZM729.153 110.988L726.885 114.588C727.629 115.164 728.433 115.692 729.297 116.172C730.161 116.628 731.097 116.988 732.105 117.252C733.137 117.54 734.253 117.684 735.453 117.684C737.421 117.684 738.945 117.24 740.025 116.352C741.129 115.44 741.681 114.096 741.681 112.32C741.681 111.288 741.453 110.46 740.997 109.836C740.565 109.212 739.977 108.696 739.233 108.288C738.513 107.88 737.721 107.52 736.857 107.208C736.041 106.896 735.345 106.644 734.769 106.452C734.217 106.236 733.785 106.008 733.473 105.768C733.185 105.528 733.041 105.228 733.041 104.868C733.041 104.556 733.161 104.304 733.401 104.112C733.665 103.92 734.049 103.824 734.553 103.824C735.297 103.824 736.113 104.04 737.001 104.472C737.889 104.88 738.681 105.408 739.377 106.056L741.321 102.528C740.673 102.048 739.977 101.628 739.233 101.268C738.513 100.908 737.733 100.62 736.893 100.404C736.077 100.188 735.189 100.08 734.229 100.08C733.029 100.08 731.961 100.26 731.025 100.62C730.113 100.98 729.381 101.508 728.829 102.204C728.301 102.9 728.037 103.752 728.037 104.76C728.037 105.816 728.265 106.68 728.721 107.352C729.177 108.024 729.753 108.564 730.449 108.972C731.169 109.356 731.925 109.692 732.717 109.98C733.605 110.244 734.301 110.496 734.805 110.736C735.333 110.976 735.705 111.228 735.921 111.492C736.137 111.732 736.245 112.032 736.245 112.392C736.245 112.776 736.113 113.088 735.849 113.328C735.585 113.568 735.177 113.688 734.625 113.688C734.241 113.688 733.785 113.616 733.257 113.472C732.729 113.304 732.117 113.028 731.421 112.644C730.749 112.236 729.993 111.684 729.153 110.988ZM745.355 91.8L746.543 108.684H750.935L752.087 91.8H745.355ZM745.355 114.768C745.355 115.68 745.667 116.424 746.291 117C746.939 117.576 747.755 117.864 748.739 117.864C749.723 117.864 750.527 117.576 751.151 117C751.799 116.424 752.123 115.68 752.123 114.768C752.123 113.856 751.799 113.112 751.151 112.536C750.527 111.96 749.723 111.672 748.739 111.672C747.755 111.672 746.939 111.96 746.291 112.536C745.667 113.112 745.355 113.856 745.355 114.768Z" fill="white"/>
<path d="M141.002 61C114.724 61 93 81.4096 93 106.518C93 116.192 96.2544 125.198 101.72 132.57L132.916 176.002L133.048 176.164C135.509 179.211 138.29 181.28 141.559 180.969C144.828 180.659 146.95 178.401 148.948 175.835L149.052 175.703L183.532 127.78L183.553 127.743C184.36 126.363 184.951 124.955 185.459 123.586C187.79 118.198 188.995 112.389 189 106.518C189 81.4108 167.281 61 141.002 61ZM141.002 67.384C163.98 67.384 182.61 85.096 182.61 106.518C182.61 111.675 181.53 116.591 179.573 121.119L179.537 121.202L179.506 121.286C179.071 122.469 178.598 123.555 178.038 124.517L178.033 124.528L143.843 171.981C142.25 174 141.128 174.597 140.952 174.614C140.777 174.63 139.928 174.461 138.108 172.245L107.028 129.005L106.938 128.885C102.175 122.51 99.39 114.815 99.39 106.517C99.39 85.0972 118.025 67.3828 141.002 67.3828V67.384ZM132.278 89.95C123.545 89.95 116.474 96.6664 116.444 104.846V104.95L116.455 105.054C117.206 112.14 123.068 118.899 128.76 124.288C134.164 129.406 139.135 132.825 139.602 133.144L140.67 133.877L141.751 133.16C142.232 132.838 147.562 129.264 153.211 124.059C159.173 118.564 165.209 111.9 165.323 104.92V104.885C165.318 96.6868 158.231 89.95 149.482 89.95C146.742 89.95 144.178 91.378 141.504 92.8672L140.88 93.2164L140.256 92.8684C137.582 91.3768 135.019 89.95 132.28 89.95H132.278Z" fill="#69078B"/>
<defs>
<radialGradient id="paint0_diamond_143_162" cx="0" cy="0" r="1" gradientUnits="userSpaceOnUse" gradientTransform="translate(163.5 147) rotate(90) scale(262 866.116)">
<stop stop-color="white"/>
<stop offset="1" stop-color="white" stop-opacity="0"/>
</radialGradient>
</defs>
</svg>
