<svg width="800" height="242" viewBox="0 0 800 242" fill="none" xmlns="http://www.w3.org/2000/svg">
<rect width="800" height="242" rx="15" fill="white"/>
<rect width="800" height="242" rx="15" fill="url(#paint0_linear_143_148)" fill-opacity="0.2"/>
<g clip-path="url(#clip0_143_148)">
<path d="M125.489 158.487L137.646 180.329C138.186 181.3 138.311 182.342 138.021 183.457C137.731 184.572 137.123 185.388 136.196 185.904L115.338 197.512C114.411 198.028 113.398 198.115 112.297 197.774C111.197 197.433 110.377 196.777 109.836 195.806L97.6799 173.964C97.1396 172.993 97.0145 171.95 97.3045 170.835C97.5946 169.72 98.2031 168.905 99.13 168.389L119.987 156.781C120.914 156.265 121.928 156.178 123.028 156.519C124.129 156.86 124.949 157.516 125.489 158.487ZM122.561 88.5971C124.384 91.8734 125.64 95.1873 126.329 98.5387C127.018 101.89 127.296 104.775 127.162 107.194C127.029 109.612 126.44 112.304 125.396 115.269C124.353 118.234 123.422 120.481 122.603 122.009C121.784 123.537 120.616 125.598 119.1 128.19C117.501 130.908 116.614 133.984 116.439 137.419C116.264 140.854 116.599 143.33 117.443 144.847C118.017 145.878 118.218 147.057 118.046 148.385C117.874 149.712 117.325 150.634 116.398 151.15L95.5407 162.758C94.6717 163.242 93.6207 163.091 92.3876 162.308C91.1546 161.524 90.2173 160.555 89.5757 159.403L87.2964 155.307C84.4937 150.271 83.7343 144.476 85.0183 137.92C86.3022 131.365 88.6128 125.768 91.95 121.129C94.4565 117.589 95.9443 114.536 96.4135 111.97C96.8826 109.404 96.3237 106.696 94.7366 103.844C93.3184 101.296 90.7219 99.8007 86.9473 99.3585C83.1727 98.9164 79.5184 99.6788 75.9842 101.646C72.2184 103.742 69.5794 106.363 68.0674 109.509C66.8838 112.154 65.7258 117.368 64.5935 125.15C64.3806 126.54 63.7527 127.525 62.7099 128.105C62.0146 128.492 61.1554 128.653 60.132 128.587L39.5482 125.143C38.4574 124.955 37.5863 124.447 36.9349 123.617C36.2836 122.788 35.9701 121.849 35.9947 120.803C36.2823 99.5047 45.2325 83.9544 62.8452 74.152C67.4801 71.5725 72.6674 69.9172 78.4071 69.1862C84.1467 68.4553 89.7775 68.6193 95.2993 69.6784C100.821 70.7375 106.044 72.8964 110.969 76.1552C115.894 79.4139 119.758 83.5612 122.561 88.5971Z" fill="#6494ED"/>
</g>
<g clip-path="url(#clip1_143_148)">
<path d="M228.208 17.6554C201.421 7.90461 171.712 21.9579 161.853 49.0444C151.993 76.131 165.716 105.994 192.503 115.744C219.291 125.495 248.999 111.442 258.859 84.3553C268.719 57.2688 254.996 27.4063 228.208 17.6554ZM219.964 35.1845L223.256 36.3828L219.684 46.1953L216.392 44.997L219.964 35.1845ZM205.427 33.2291L208.069 43.2894L204.671 44.2225L202.03 34.1622L205.427 33.2291ZM235.647 44.2293L237.65 47.1279L229.16 53.1364L227.157 50.2378L235.647 44.2293ZM217.061 48.2783C225.125 51.2136 229.861 58.5424 227.637 64.6508L210.095 87.0337L197.484 82.4431L198.436 54.0213C200.659 47.9128 208.998 45.3432 217.061 48.2783ZM189.766 41.6784L197.661 48.3561L195.391 51.0756L187.501 44.4001L189.766 41.6784ZM242.213 60.7693L242.198 64.3099L231.857 64.3495L231.872 60.8089L242.213 60.7693ZM193.231 59.1646L192.911 62.6958L182.614 61.8226L182.934 58.2913L193.231 59.1646ZM228.318 71.9363L236.766 77.8865L234.741 80.797L226.293 74.8469L228.318 71.9363ZM196.625 84.2322L209.603 88.9564L207.997 93.3687L195.019 88.6445L196.625 84.2322ZM194.219 90.8417L207.198 95.5659L205.591 99.9782L192.613 95.2539L194.219 90.8417Z" fill="#6494ED"/>
</g>
<path d="M187.664 156.8V182H193.748V156.8H187.664ZM191.48 161.804H196.412C197.636 161.804 198.596 162.08 199.292 162.632C199.988 163.184 200.336 163.988 200.336 165.044C200.336 166.076 199.988 166.868 199.292 167.42C198.596 167.972 197.636 168.248 196.412 168.248H191.48V173.252H196.412C198.548 173.252 200.336 172.928 201.776 172.28C203.24 171.608 204.344 170.66 205.088 169.436C205.832 168.188 206.204 166.724 206.204 165.044C206.204 163.316 205.832 161.84 205.088 160.616C204.344 159.392 203.24 158.456 201.776 157.808C200.336 157.136 198.548 156.8 196.412 156.8H191.48V161.804ZM209.554 153.92V182H215.026V153.92H209.554ZM223.469 176.816C223.469 176.408 223.565 176.072 223.757 175.808C223.949 175.52 224.237 175.304 224.621 175.16C225.005 175.016 225.521 174.944 226.169 174.944C227.009 174.944 227.801 175.064 228.545 175.304C229.313 175.52 229.985 175.844 230.561 176.276V173.864C230.273 173.552 229.841 173.252 229.265 172.964C228.689 172.676 227.993 172.436 227.177 172.244C226.385 172.052 225.485 171.956 224.477 171.956C222.413 171.956 220.817 172.424 219.689 173.36C218.561 174.272 217.997 175.52 217.997 177.104C217.997 178.232 218.261 179.192 218.789 179.984C219.341 180.776 220.061 181.376 220.949 181.784C221.861 182.168 222.845 182.36 223.901 182.36C224.957 182.36 225.941 182.18 226.853 181.82C227.765 181.436 228.509 180.884 229.085 180.164C229.661 179.42 229.949 178.52 229.949 177.464L229.373 175.304C229.373 176.072 229.205 176.72 228.869 177.248C228.533 177.776 228.101 178.172 227.573 178.436C227.045 178.7 226.469 178.832 225.845 178.832C225.413 178.832 225.017 178.76 224.657 178.616C224.297 178.448 224.009 178.22 223.793 177.932C223.577 177.62 223.469 177.248 223.469 176.816ZM221.057 170.516C221.297 170.372 221.681 170.192 222.209 169.976C222.737 169.736 223.349 169.532 224.045 169.364C224.765 169.196 225.497 169.112 226.241 169.112C226.745 169.112 227.189 169.16 227.573 169.256C227.981 169.352 228.317 169.508 228.581 169.724C228.845 169.94 229.037 170.204 229.157 170.516C229.301 170.804 229.373 171.152 229.373 171.56V182H234.593V170.336C234.593 169.184 234.257 168.212 233.585 167.42C232.913 166.628 232.001 166.028 230.849 165.62C229.697 165.188 228.389 164.972 226.925 164.972C225.365 164.972 223.925 165.176 222.605 165.584C221.285 165.992 220.157 166.424 219.221 166.88L221.057 170.516ZM255.443 165.44H249.863L244.571 178.688L247.379 178.724L242.015 165.44H236.039L243.203 180.668L239.171 189.92H244.643L255.443 165.44ZM266.11 165.44V169.94H277.198V165.44H266.11ZM269.026 159.68V182H274.246V159.68H269.026ZM284.987 153.92H279.515V182H284.987V153.92ZM290.279 171.92V182H295.715V171.128C295.715 169.76 295.523 168.608 295.139 167.672C294.755 166.736 294.143 166.028 293.303 165.548C292.487 165.068 291.395 164.828 290.027 164.828C288.659 164.828 287.531 165.152 286.643 165.8C285.779 166.424 285.131 167.276 284.699 168.356C284.267 169.412 284.051 170.6 284.051 171.92H284.987C284.987 171.272 285.107 170.732 285.347 170.3C285.587 169.844 285.923 169.496 286.355 169.256C286.787 168.992 287.291 168.86 287.867 168.86C288.755 168.86 289.379 169.124 289.739 169.652C290.099 170.18 290.279 170.936 290.279 171.92ZM299.039 173.72C299.039 175.448 299.447 176.96 300.263 178.256C301.079 179.552 302.207 180.56 303.647 181.28C305.087 182 306.707 182.36 308.507 182.36C310.307 182.36 311.915 182 313.331 181.28C314.771 180.56 315.899 179.552 316.715 178.256C317.555 176.96 317.975 175.448 317.975 173.72C317.975 171.968 317.555 170.444 316.715 169.148C315.899 167.852 314.771 166.844 313.331 166.124C311.915 165.404 310.307 165.044 308.507 165.044C306.707 165.044 305.087 165.404 303.647 166.124C302.207 166.844 301.079 167.852 300.263 169.148C299.447 170.444 299.039 171.968 299.039 173.72ZM304.619 173.72C304.619 172.856 304.799 172.112 305.159 171.488C305.519 170.864 305.987 170.384 306.563 170.048C307.139 169.712 307.787 169.544 308.507 169.544C309.203 169.544 309.839 169.712 310.415 170.048C311.015 170.384 311.483 170.864 311.819 171.488C312.179 172.112 312.359 172.856 312.359 173.72C312.359 174.584 312.179 175.328 311.819 175.952C311.483 176.552 311.015 177.02 310.415 177.356C309.839 177.692 309.203 177.86 308.507 177.86C307.787 177.86 307.139 177.692 306.563 177.356C305.987 177.02 305.519 176.552 305.159 175.952C304.799 175.328 304.619 174.584 304.619 173.72ZM326.933 175.52V165.44H321.245V176.096C321.245 178.064 321.713 179.612 322.649 180.74C323.609 181.844 325.121 182.396 327.185 182.396C328.409 182.396 329.429 182.144 330.245 181.64C331.061 181.112 331.721 180.404 332.225 179.516V182H337.661V165.44H332.225V175.52C332.225 176.168 332.105 176.72 331.865 177.176C331.625 177.632 331.289 177.98 330.857 178.22C330.449 178.46 329.945 178.58 329.345 178.58C328.457 178.58 327.833 178.316 327.473 177.788C327.113 177.236 326.933 176.48 326.933 175.52ZM342.852 175.988L340.584 179.588C341.328 180.164 342.132 180.692 342.996 181.172C343.86 181.628 344.796 181.988 345.804 182.252C346.836 182.54 347.952 182.684 349.152 182.684C351.12 182.684 352.644 182.24 353.724 181.352C354.828 180.44 355.38 179.096 355.38 177.32C355.38 176.288 355.152 175.46 354.696 174.836C354.264 174.212 353.676 173.696 352.932 173.288C352.212 172.88 351.42 172.52 350.556 172.208C349.74 171.896 349.044 171.644 348.468 171.452C347.916 171.236 347.484 171.008 347.172 170.768C346.884 170.528 346.74 170.228 346.74 169.868C346.74 169.556 346.86 169.304 347.1 169.112C347.364 168.92 347.748 168.824 348.252 168.824C348.996 168.824 349.812 169.04 350.7 169.472C351.588 169.88 352.38 170.408 353.076 171.056L355.02 167.528C354.372 167.048 353.676 166.628 352.932 166.268C352.212 165.908 351.432 165.62 350.592 165.404C349.776 165.188 348.888 165.08 347.928 165.08C346.728 165.08 345.66 165.26 344.724 165.62C343.812 165.98 343.08 166.508 342.528 167.204C342 167.9 341.736 168.752 341.736 169.76C341.736 170.816 341.964 171.68 342.42 172.352C342.876 173.024 343.452 173.564 344.148 173.972C344.868 174.356 345.624 174.692 346.416 174.98C347.304 175.244 348 175.496 348.504 175.736C349.032 175.976 349.404 176.228 349.62 176.492C349.836 176.732 349.944 177.032 349.944 177.392C349.944 177.776 349.812 178.088 349.548 178.328C349.284 178.568 348.876 178.688 348.324 178.688C347.94 178.688 347.484 178.616 346.956 178.472C346.428 178.304 345.816 178.028 345.12 177.644C344.448 177.236 343.692 176.684 342.852 175.988ZM362.582 176.816C362.582 176.408 362.678 176.072 362.87 175.808C363.062 175.52 363.35 175.304 363.734 175.16C364.118 175.016 364.634 174.944 365.282 174.944C366.122 174.944 366.914 175.064 367.658 175.304C368.426 175.52 369.098 175.844 369.674 176.276V173.864C369.386 173.552 368.954 173.252 368.378 172.964C367.802 172.676 367.106 172.436 366.29 172.244C365.498 172.052 364.598 171.956 363.59 171.956C361.526 171.956 359.93 172.424 358.802 173.36C357.674 174.272 357.11 175.52 357.11 177.104C357.11 178.232 357.374 179.192 357.902 179.984C358.454 180.776 359.174 181.376 360.062 181.784C360.974 182.168 361.958 182.36 363.014 182.36C364.07 182.36 365.054 182.18 365.966 181.82C366.878 181.436 367.622 180.884 368.198 180.164C368.774 179.42 369.062 178.52 369.062 177.464L368.486 175.304C368.486 176.072 368.318 176.72 367.982 177.248C367.646 177.776 367.214 178.172 366.686 178.436C366.158 178.7 365.582 178.832 364.958 178.832C364.526 178.832 364.13 178.76 363.77 178.616C363.41 178.448 363.122 178.22 362.906 177.932C362.69 177.62 362.582 177.248 362.582 176.816ZM360.17 170.516C360.41 170.372 360.794 170.192 361.322 169.976C361.85 169.736 362.462 169.532 363.158 169.364C363.878 169.196 364.61 169.112 365.354 169.112C365.858 169.112 366.302 169.16 366.686 169.256C367.094 169.352 367.43 169.508 367.694 169.724C367.958 169.94 368.15 170.204 368.27 170.516C368.414 170.804 368.486 171.152 368.486 171.56V182H373.706V170.336C373.706 169.184 373.37 168.212 372.698 167.42C372.026 166.628 371.114 166.028 369.962 165.62C368.81 165.188 367.502 164.972 366.038 164.972C364.478 164.972 363.038 165.176 361.718 165.584C360.398 165.992 359.27 166.424 358.334 166.88L360.17 170.516ZM388.54 171.92V182H394.192V171.344C394.192 169.352 393.724 167.804 392.788 166.7C391.852 165.596 390.352 165.044 388.288 165.044C387.064 165.044 386.032 165.296 385.192 165.8C384.376 166.304 383.728 167.012 383.248 167.924V165.44H377.776V182H383.248V171.92C383.248 171.272 383.368 170.72 383.608 170.264C383.848 169.808 384.184 169.46 384.616 169.22C385.048 168.98 385.552 168.86 386.128 168.86C386.992 168.86 387.604 169.124 387.964 169.652C388.348 170.18 388.54 170.936 388.54 171.92ZM411.047 153.92V182H416.483V153.92H411.047ZM397.511 173.72C397.511 175.568 397.883 177.14 398.627 178.436C399.395 179.708 400.379 180.68 401.579 181.352C402.779 182.024 404.051 182.36 405.395 182.36C406.787 182.36 408.011 182.012 409.067 181.316C410.147 180.62 410.999 179.624 411.623 178.328C412.247 177.032 412.559 175.496 412.559 173.72C412.559 171.92 412.247 170.384 411.623 169.112C410.999 167.816 410.147 166.82 409.067 166.124C408.011 165.428 406.787 165.08 405.395 165.08C404.051 165.08 402.779 165.416 401.579 166.088C400.379 166.76 399.395 167.732 398.627 169.004C397.883 170.276 397.511 171.848 397.511 173.72ZM403.235 173.72C403.235 172.856 403.415 172.112 403.775 171.488C404.135 170.84 404.615 170.348 405.215 170.012C405.815 169.652 406.475 169.472 407.195 169.472C407.819 169.472 408.419 169.64 408.995 169.976C409.595 170.312 410.087 170.804 410.471 171.452C410.855 172.076 411.047 172.832 411.047 173.72C411.047 174.608 410.855 175.376 410.471 176.024C410.087 176.648 409.595 177.128 408.995 177.464C408.419 177.8 407.819 177.968 407.195 177.968C406.475 177.968 405.815 177.8 405.215 177.464C404.615 177.104 404.135 176.612 403.775 175.988C403.415 175.34 403.235 174.584 403.235 173.72ZM421.602 175.988L419.334 179.588C420.078 180.164 420.882 180.692 421.746 181.172C422.61 181.628 423.546 181.988 424.554 182.252C425.586 182.54 426.702 182.684 427.902 182.684C429.87 182.684 431.394 182.24 432.474 181.352C433.578 180.44 434.13 179.096 434.13 177.32C434.13 176.288 433.902 175.46 433.446 174.836C433.014 174.212 432.426 173.696 431.682 173.288C430.962 172.88 430.17 172.52 429.306 172.208C428.49 171.896 427.794 171.644 427.218 171.452C426.666 171.236 426.234 171.008 425.922 170.768C425.634 170.528 425.49 170.228 425.49 169.868C425.49 169.556 425.61 169.304 425.85 169.112C426.114 168.92 426.498 168.824 427.002 168.824C427.746 168.824 428.562 169.04 429.45 169.472C430.338 169.88 431.13 170.408 431.826 171.056L433.77 167.528C433.122 167.048 432.426 166.628 431.682 166.268C430.962 165.908 430.182 165.62 429.342 165.404C428.526 165.188 427.638 165.08 426.678 165.08C425.478 165.08 424.41 165.26 423.474 165.62C422.562 165.98 421.83 166.508 421.278 167.204C420.75 167.9 420.486 168.752 420.486 169.76C420.486 170.816 420.714 171.68 421.17 172.352C421.626 173.024 422.202 173.564 422.898 173.972C423.618 174.356 424.374 174.692 425.166 174.98C426.054 175.244 426.75 175.496 427.254 175.736C427.782 175.976 428.154 176.228 428.37 176.492C428.586 176.732 428.694 177.032 428.694 177.392C428.694 177.776 428.562 178.088 428.298 178.328C428.034 178.568 427.626 178.688 427.074 178.688C426.69 178.688 426.234 178.616 425.706 178.472C425.178 178.304 424.566 178.028 423.87 177.644C423.198 177.236 422.442 176.684 421.602 175.988ZM446.941 173.72C446.941 175.448 447.349 176.96 448.165 178.256C448.981 179.552 450.109 180.56 451.549 181.28C452.989 182 454.609 182.36 456.409 182.36C458.209 182.36 459.817 182 461.233 181.28C462.673 180.56 463.801 179.552 464.617 178.256C465.457 176.96 465.877 175.448 465.877 173.72C465.877 171.968 465.457 170.444 464.617 169.148C463.801 167.852 462.673 166.844 461.233 166.124C459.817 165.404 458.209 165.044 456.409 165.044C454.609 165.044 452.989 165.404 451.549 166.124C450.109 166.844 448.981 167.852 448.165 169.148C447.349 170.444 446.941 171.968 446.941 173.72ZM452.521 173.72C452.521 172.856 452.701 172.112 453.061 171.488C453.421 170.864 453.889 170.384 454.465 170.048C455.041 169.712 455.689 169.544 456.409 169.544C457.105 169.544 457.741 169.712 458.317 170.048C458.917 170.384 459.385 170.864 459.721 171.488C460.081 172.112 460.261 172.856 460.261 173.72C460.261 174.584 460.081 175.328 459.721 175.952C459.385 176.552 458.917 177.02 458.317 177.356C457.741 177.692 457.105 177.86 456.409 177.86C455.689 177.86 455.041 177.692 454.465 177.356C453.889 177.02 453.421 176.552 453.061 175.952C452.701 175.328 452.521 174.584 452.521 173.72ZM467.671 165.44V169.94H478.975V165.44H467.671ZM478.363 159.14L480.559 155.144C480.319 154.904 479.995 154.652 479.587 154.388C479.179 154.1 478.687 153.86 478.111 153.668C477.535 153.452 476.827 153.344 475.987 153.344C474.619 153.344 473.467 153.584 472.531 154.064C471.619 154.544 470.923 155.228 470.443 156.116C469.987 157.004 469.759 158.072 469.759 159.32V182H474.979V160.688C474.979 160.112 475.051 159.644 475.195 159.284C475.339 158.924 475.531 158.66 475.771 158.492C476.035 158.324 476.347 158.24 476.707 158.24C477.019 158.24 477.307 158.312 477.571 158.456C477.859 158.6 478.123 158.828 478.363 159.14ZM504.879 189.92H510.315V165.44H504.879V189.92ZM491.343 173.72C491.343 175.64 491.715 177.26 492.459 178.58C493.227 179.9 494.211 180.896 495.411 181.568C496.611 182.24 497.883 182.576 499.227 182.576C500.691 182.576 501.939 182.216 502.971 181.496C504.003 180.752 504.795 179.72 505.347 178.4C505.899 177.056 506.175 175.496 506.175 173.72C506.175 171.92 505.899 170.36 505.347 169.04C504.795 167.72 504.003 166.7 502.971 165.98C501.939 165.236 500.691 164.864 499.227 164.864C497.883 164.864 496.611 165.2 495.411 165.872C494.211 166.544 493.227 167.54 492.459 168.86C491.715 170.156 491.343 171.776 491.343 173.72ZM497.067 173.72C497.067 172.856 497.247 172.124 497.607 171.524C497.967 170.924 498.447 170.468 499.047 170.156C499.647 169.844 500.307 169.688 501.027 169.688C501.651 169.688 502.251 169.844 502.827 170.156C503.427 170.444 503.919 170.888 504.303 171.488C504.687 172.088 504.879 172.832 504.879 173.72C504.879 174.608 504.687 175.352 504.303 175.952C503.919 176.552 503.427 177.008 502.827 177.32C502.251 177.608 501.651 177.752 501.027 177.752C500.307 177.752 499.647 177.596 499.047 177.284C498.447 176.972 497.967 176.516 497.607 175.916C497.247 175.316 497.067 174.584 497.067 173.72ZM520.222 175.52V165.44H514.534V176.096C514.534 178.064 515.002 179.612 515.938 180.74C516.898 181.844 518.41 182.396 520.474 182.396C521.698 182.396 522.718 182.144 523.534 181.64C524.35 181.112 525.01 180.404 525.514 179.516V182H530.95V165.44H525.514V175.52C525.514 176.168 525.394 176.72 525.154 177.176C524.914 177.632 524.578 177.98 524.146 178.22C523.738 178.46 523.234 178.58 522.634 178.58C521.746 178.58 521.122 178.316 520.762 177.788C520.402 177.236 520.222 176.48 520.222 175.52ZM543.665 182.36C545.777 182.36 547.565 181.952 549.029 181.136C550.517 180.32 551.693 179.096 552.557 177.464L547.697 176.276C547.289 176.996 546.737 177.536 546.041 177.896C545.369 178.256 544.553 178.436 543.593 178.436C542.753 178.436 542.045 178.256 541.469 177.896C540.893 177.512 540.461 176.96 540.173 176.24C539.885 175.52 539.741 174.656 539.741 173.648C539.765 172.544 539.909 171.632 540.173 170.912C540.461 170.168 540.881 169.616 541.433 169.256C541.985 168.896 542.669 168.716 543.485 168.716C544.133 168.716 544.697 168.86 545.177 169.148C545.657 169.436 546.029 169.844 546.293 170.372C546.557 170.9 546.689 171.524 546.689 172.244C546.689 172.412 546.641 172.628 546.545 172.892C546.473 173.132 546.377 173.336 546.257 173.504L547.553 171.848H537.329V174.872H552.449C552.497 174.704 552.521 174.5 552.521 174.26C552.521 173.996 552.521 173.732 552.521 173.468C552.521 171.692 552.173 170.18 551.477 168.932C550.781 167.684 549.773 166.736 548.453 166.088C547.133 165.416 545.513 165.08 543.593 165.08C541.673 165.08 540.005 165.428 538.589 166.124C537.197 166.82 536.129 167.816 535.385 169.112C534.641 170.408 534.269 171.944 534.269 173.72C534.269 175.472 534.653 176.996 535.421 178.292C536.189 179.588 537.269 180.596 538.661 181.316C540.077 182.012 541.745 182.36 543.665 182.36ZM556.778 175.988L554.51 179.588C555.254 180.164 556.058 180.692 556.922 181.172C557.786 181.628 558.722 181.988 559.73 182.252C560.762 182.54 561.878 182.684 563.078 182.684C565.046 182.684 566.57 182.24 567.65 181.352C568.754 180.44 569.306 179.096 569.306 177.32C569.306 176.288 569.078 175.46 568.622 174.836C568.19 174.212 567.602 173.696 566.858 173.288C566.138 172.88 565.346 172.52 564.482 172.208C563.666 171.896 562.97 171.644 562.394 171.452C561.842 171.236 561.41 171.008 561.098 170.768C560.81 170.528 560.666 170.228 560.666 169.868C560.666 169.556 560.786 169.304 561.026 169.112C561.29 168.92 561.674 168.824 562.178 168.824C562.922 168.824 563.738 169.04 564.626 169.472C565.514 169.88 566.306 170.408 567.002 171.056L568.946 167.528C568.298 167.048 567.602 166.628 566.858 166.268C566.138 165.908 565.358 165.62 564.518 165.404C563.702 165.188 562.814 165.08 561.854 165.08C560.654 165.08 559.586 165.26 558.65 165.62C557.738 165.98 557.006 166.508 556.454 167.204C555.926 167.9 555.662 168.752 555.662 169.76C555.662 170.816 555.89 171.68 556.346 172.352C556.802 173.024 557.378 173.564 558.074 173.972C558.794 174.356 559.55 174.692 560.342 174.98C561.23 175.244 561.926 175.496 562.43 175.736C562.958 175.976 563.33 176.228 563.546 176.492C563.762 176.732 563.87 177.032 563.87 177.392C563.87 177.776 563.738 178.088 563.474 178.328C563.21 178.568 562.802 178.688 562.25 178.688C561.866 178.688 561.41 178.616 560.882 178.472C560.354 178.304 559.742 178.028 559.046 177.644C558.374 177.236 557.618 176.684 556.778 175.988ZM570.352 165.44V169.94H581.44V165.44H570.352ZM573.268 159.68V182H578.488V159.68H573.268ZM583.433 159.212C583.433 160.076 583.745 160.784 584.369 161.336C584.993 161.888 585.737 162.164 586.601 162.164C587.489 162.164 588.233 161.888 588.833 161.336C589.457 160.784 589.769 160.076 589.769 159.212C589.769 158.348 589.457 157.652 588.833 157.124C588.233 156.572 587.489 156.296 586.601 156.296C585.737 156.296 584.993 156.572 584.369 157.124C583.745 157.652 583.433 158.348 583.433 159.212ZM583.973 165.44V182H589.229V165.44H583.973ZM592.734 173.72C592.734 175.448 593.142 176.96 593.958 178.256C594.774 179.552 595.902 180.56 597.342 181.28C598.782 182 600.402 182.36 602.202 182.36C604.002 182.36 605.61 182 607.026 181.28C608.466 180.56 609.594 179.552 610.41 178.256C611.25 176.96 611.67 175.448 611.67 173.72C611.67 171.968 611.25 170.444 610.41 169.148C609.594 167.852 608.466 166.844 607.026 166.124C605.61 165.404 604.002 165.044 602.202 165.044C600.402 165.044 598.782 165.404 597.342 166.124C595.902 166.844 594.774 167.852 593.958 169.148C593.142 170.444 592.734 171.968 592.734 173.72ZM598.314 173.72C598.314 172.856 598.494 172.112 598.854 171.488C599.214 170.864 599.682 170.384 600.258 170.048C600.834 169.712 601.482 169.544 602.202 169.544C602.898 169.544 603.534 169.712 604.11 170.048C604.71 170.384 605.178 170.864 605.514 171.488C605.874 172.112 606.054 172.856 606.054 173.72C606.054 174.584 605.874 175.328 605.514 175.952C605.178 176.552 604.71 177.02 604.11 177.356C603.534 177.692 602.898 177.86 602.202 177.86C601.482 177.86 600.834 177.692 600.258 177.356C599.682 177.02 599.214 176.552 598.854 175.952C598.494 175.328 598.314 174.584 598.314 173.72ZM625.704 171.92V182H631.356V171.344C631.356 169.352 630.888 167.804 629.952 166.7C629.016 165.596 627.516 165.044 625.452 165.044C624.228 165.044 623.196 165.296 622.356 165.8C621.54 166.304 620.892 167.012 620.412 167.924V165.44H614.94V182H620.412V171.92C620.412 171.272 620.532 170.72 620.772 170.264C621.012 169.808 621.348 169.46 621.78 169.22C622.212 168.98 622.716 168.86 623.292 168.86C624.156 168.86 624.768 169.124 625.128 169.652C625.512 170.18 625.704 170.936 625.704 171.92ZM636.547 175.988L634.279 179.588C635.023 180.164 635.827 180.692 636.691 181.172C637.555 181.628 638.491 181.988 639.499 182.252C640.531 182.54 641.647 182.684 642.847 182.684C644.815 182.684 646.339 182.24 647.419 181.352C648.523 180.44 649.075 179.096 649.075 177.32C649.075 176.288 648.847 175.46 648.391 174.836C647.959 174.212 647.371 173.696 646.627 173.288C645.907 172.88 645.115 172.52 644.251 172.208C643.435 171.896 642.739 171.644 642.163 171.452C641.611 171.236 641.179 171.008 640.867 170.768C640.579 170.528 640.435 170.228 640.435 169.868C640.435 169.556 640.555 169.304 640.795 169.112C641.059 168.92 641.443 168.824 641.947 168.824C642.691 168.824 643.507 169.04 644.395 169.472C645.283 169.88 646.075 170.408 646.771 171.056L648.715 167.528C648.067 167.048 647.371 166.628 646.627 166.268C645.907 165.908 645.127 165.62 644.287 165.404C643.471 165.188 642.583 165.08 641.623 165.08C640.423 165.08 639.355 165.26 638.419 165.62C637.507 165.98 636.775 166.508 636.223 167.204C635.695 167.9 635.431 168.752 635.431 169.76C635.431 170.816 635.659 171.68 636.115 172.352C636.571 173.024 637.147 173.564 637.843 173.972C638.563 174.356 639.319 174.692 640.111 174.98C640.999 175.244 641.695 175.496 642.199 175.736C642.727 175.976 643.099 176.228 643.315 176.492C643.531 176.732 643.639 177.032 643.639 177.392C643.639 177.776 643.507 178.088 643.243 178.328C642.979 178.568 642.571 178.688 642.019 178.688C641.635 178.688 641.179 178.616 640.651 178.472C640.123 178.304 639.511 178.028 638.815 177.644C638.143 177.236 637.387 176.684 636.547 175.988ZM661.886 173.72C661.886 175.448 662.294 176.96 663.11 178.256C663.926 179.552 665.054 180.56 666.494 181.28C667.934 182 669.554 182.36 671.354 182.36C673.154 182.36 674.762 182 676.178 181.28C677.618 180.56 678.746 179.552 679.562 178.256C680.402 176.96 680.822 175.448 680.822 173.72C680.822 171.968 680.402 170.444 679.562 169.148C678.746 167.852 677.618 166.844 676.178 166.124C674.762 165.404 673.154 165.044 671.354 165.044C669.554 165.044 667.934 165.404 666.494 166.124C665.054 166.844 663.926 167.852 663.11 169.148C662.294 170.444 661.886 171.968 661.886 173.72ZM667.466 173.72C667.466 172.856 667.646 172.112 668.006 171.488C668.366 170.864 668.834 170.384 669.41 170.048C669.986 169.712 670.634 169.544 671.354 169.544C672.05 169.544 672.686 169.712 673.262 170.048C673.862 170.384 674.33 170.864 674.666 171.488C675.026 172.112 675.206 172.856 675.206 173.72C675.206 174.584 675.026 175.328 674.666 175.952C674.33 176.552 673.862 177.02 673.262 177.356C672.686 177.692 672.05 177.86 671.354 177.86C670.634 177.86 669.986 177.692 669.41 177.356C668.834 177.02 668.366 176.552 668.006 175.952C667.646 175.328 667.466 174.584 667.466 173.72ZM694.857 171.92V182H700.509V171.344C700.509 169.352 700.041 167.804 699.105 166.7C698.169 165.596 696.669 165.044 694.605 165.044C693.381 165.044 692.349 165.296 691.509 165.8C690.693 166.304 690.045 167.012 689.565 167.924V165.44H684.093V182H689.565V171.92C689.565 171.272 689.685 170.72 689.925 170.264C690.165 169.808 690.501 169.46 690.933 169.22C691.365 168.98 691.869 168.86 692.445 168.86C693.309 168.86 693.921 169.124 694.281 169.652C694.665 170.18 694.857 170.936 694.857 171.92ZM704.8 153.92V182H710.272V153.92H704.8ZM714.179 159.212C714.179 160.076 714.491 160.784 715.115 161.336C715.739 161.888 716.483 162.164 717.347 162.164C718.235 162.164 718.979 161.888 719.579 161.336C720.203 160.784 720.515 160.076 720.515 159.212C720.515 158.348 720.203 157.652 719.579 157.124C718.979 156.572 718.235 156.296 717.347 156.296C716.483 156.296 715.739 156.572 715.115 157.124C714.491 157.652 714.179 158.348 714.179 159.212ZM714.719 165.44V182H719.975V165.44H714.719ZM735.216 171.92V182H740.868V171.344C740.868 169.352 740.4 167.804 739.464 166.7C738.528 165.596 737.028 165.044 734.964 165.044C733.74 165.044 732.708 165.296 731.868 165.8C731.052 166.304 730.404 167.012 729.924 167.924V165.44H724.452V182H729.924V171.92C729.924 171.272 730.044 170.72 730.284 170.264C730.524 169.808 730.86 169.46 731.292 169.22C731.724 168.98 732.228 168.86 732.804 168.86C733.668 168.86 734.28 169.124 734.64 169.652C735.024 170.18 735.216 170.936 735.216 171.92ZM753.583 182.36C755.695 182.36 757.483 181.952 758.947 181.136C760.435 180.32 761.611 179.096 762.475 177.464L757.615 176.276C757.207 176.996 756.655 177.536 755.959 177.896C755.287 178.256 754.471 178.436 753.511 178.436C752.671 178.436 751.963 178.256 751.387 177.896C750.811 177.512 750.379 176.96 750.091 176.24C749.803 175.52 749.659 174.656 749.659 173.648C749.683 172.544 749.827 171.632 750.091 170.912C750.379 170.168 750.799 169.616 751.351 169.256C751.903 168.896 752.587 168.716 753.403 168.716C754.051 168.716 754.615 168.86 755.095 169.148C755.575 169.436 755.947 169.844 756.211 170.372C756.475 170.9 756.607 171.524 756.607 172.244C756.607 172.412 756.559 172.628 756.463 172.892C756.391 173.132 756.295 173.336 756.175 173.504L757.471 171.848H747.247V174.872H762.367C762.415 174.704 762.439 174.5 762.439 174.26C762.439 173.996 762.439 173.732 762.439 173.468C762.439 171.692 762.091 170.18 761.395 168.932C760.699 167.684 759.691 166.736 758.371 166.088C757.051 165.416 755.431 165.08 753.511 165.08C751.591 165.08 749.923 165.428 748.507 166.124C747.115 166.82 746.047 167.816 745.303 169.112C744.559 170.408 744.187 171.944 744.187 173.72C744.187 175.472 744.571 176.996 745.339 178.292C746.107 179.588 747.187 180.596 748.579 181.316C749.995 182.012 751.663 182.36 753.583 182.36ZM766.48 156.8L767.668 173.684H772.06L773.212 156.8H766.48ZM766.48 179.768C766.48 180.68 766.792 181.424 767.416 182C768.064 182.576 768.88 182.864 769.864 182.864C770.848 182.864 771.652 182.576 772.276 182C772.924 181.424 773.248 180.68 773.248 179.768C773.248 178.856 772.924 178.112 772.276 177.536C771.652 176.96 770.848 176.672 769.864 176.672C768.88 176.672 768.064 176.96 767.416 177.536C766.792 178.112 766.48 178.856 766.48 179.768Z" fill="#214B9A"/>
<defs>
<linearGradient id="paint0_linear_143_148" x1="400" y1="199" x2="400" y2="29.5" gradientUnits="userSpaceOnUse">
<stop offset="0.242898" stop-color="#8368EE"/>
<stop offset="1" stop-color="#8368EE" stop-opacity="0"/>
</linearGradient>
<clipPath id="clip0_143_148">
<rect width="92.2966" height="133.318" fill="white" transform="translate(22 96.8845) rotate(-29.0982)"/>
</clipPath>
<clipPath id="clip1_143_148">
<rect width="103.233" height="104.385" fill="white" transform="translate(179.705) rotate(20.0018)"/>
</clipPath>
</defs>
</svg>
