<svg width="800" height="242" viewBox="0 0 800 242" fill="none" xmlns="http://www.w3.org/2000/svg">
<rect width="800" height="242" rx="15" fill="#8BB1F6"/>
<rect width="800" height="242" rx="15" fill="url(#paint0_linear_143_168)" fill-opacity="0.2"/>
<path d="M272.144 55.236H279.056V75H285.14V55.236H292.088V49.8H272.144V55.236ZM289.746 66.72C289.746 68.448 290.154 69.96 290.97 71.256C291.786 72.552 292.914 73.56 294.354 74.28C295.794 75 297.414 75.36 299.214 75.36C301.014 75.36 302.622 75 304.038 74.28C305.478 73.56 306.606 72.552 307.422 71.256C308.262 69.96 308.682 68.448 308.682 66.72C308.682 64.968 308.262 63.444 307.422 62.148C306.606 60.852 305.478 59.844 304.038 59.124C302.622 58.404 301.014 58.044 299.214 58.044C297.414 58.044 295.794 58.404 294.354 59.124C292.914 59.844 291.786 60.852 290.97 62.148C290.154 63.444 289.746 64.968 289.746 66.72ZM295.326 66.72C295.326 65.856 295.506 65.112 295.866 64.488C296.226 63.864 296.694 63.384 297.27 63.048C297.846 62.712 298.494 62.544 299.214 62.544C299.91 62.544 300.546 62.712 301.122 63.048C301.722 63.384 302.19 63.864 302.526 64.488C302.886 65.112 303.066 65.856 303.066 66.72C303.066 67.584 302.886 68.328 302.526 68.952C302.19 69.552 301.722 70.02 301.122 70.356C300.546 70.692 299.91 70.86 299.214 70.86C298.494 70.86 297.846 70.692 297.27 70.356C296.694 70.02 296.226 69.552 295.866 68.952C295.506 68.328 295.326 67.584 295.326 66.72ZM317.352 82.92V58.44H311.916V82.92H317.352ZM330.888 66.72C330.888 64.776 330.504 63.156 329.736 61.86C328.992 60.54 328.02 59.544 326.82 58.872C325.644 58.2 324.372 57.864 323.004 57.864C321.564 57.864 320.316 58.236 319.26 58.98C318.228 59.7 317.436 60.72 316.884 62.04C316.332 63.36 316.056 64.92 316.056 66.72C316.056 68.496 316.332 70.056 316.884 71.4C317.436 72.72 318.228 73.752 319.26 74.496C320.316 75.216 321.564 75.576 323.004 75.576C324.372 75.576 325.644 75.24 326.82 74.568C328.02 73.896 328.992 72.9 329.736 71.58C330.504 70.26 330.888 68.64 330.888 66.72ZM325.164 66.72C325.164 67.584 324.984 68.316 324.624 68.916C324.264 69.516 323.784 69.972 323.184 70.284C322.584 70.596 321.924 70.752 321.204 70.752C320.58 70.752 319.968 70.608 319.368 70.32C318.792 70.008 318.312 69.552 317.928 68.952C317.544 68.352 317.352 67.608 317.352 66.72C317.352 65.832 317.544 65.088 317.928 64.488C318.312 63.888 318.792 63.444 319.368 63.156C319.968 62.844 320.58 62.688 321.204 62.688C321.924 62.688 322.584 62.844 323.184 63.156C323.784 63.468 324.264 63.924 324.624 64.524C324.984 65.124 325.164 65.856 325.164 66.72ZM343.02 58.44V62.94H354.108V58.44H343.02ZM345.936 52.68V75H351.156V52.68H345.936ZM361.897 46.92H356.425V75H361.897V46.92ZM367.189 64.92V75H372.625V64.128C372.625 62.76 372.433 61.608 372.049 60.672C371.665 59.736 371.053 59.028 370.213 58.548C369.397 58.068 368.305 57.828 366.937 57.828C365.569 57.828 364.441 58.152 363.553 58.8C362.689 59.424 362.041 60.276 361.609 61.356C361.177 62.412 360.961 63.6 360.961 64.92H361.897C361.897 64.272 362.017 63.732 362.257 63.3C362.497 62.844 362.833 62.496 363.265 62.256C363.697 61.992 364.201 61.86 364.777 61.86C365.665 61.86 366.289 62.124 366.649 62.652C367.009 63.18 367.189 63.936 367.189 64.92ZM385.345 75.36C387.457 75.36 389.245 74.952 390.709 74.136C392.197 73.32 393.373 72.096 394.237 70.464L389.377 69.276C388.969 69.996 388.417 70.536 387.721 70.896C387.049 71.256 386.233 71.436 385.273 71.436C384.433 71.436 383.725 71.256 383.149 70.896C382.573 70.512 382.141 69.96 381.853 69.24C381.565 68.52 381.421 67.656 381.421 66.648C381.445 65.544 381.589 64.632 381.853 63.912C382.141 63.168 382.561 62.616 383.113 62.256C383.665 61.896 384.349 61.716 385.165 61.716C385.813 61.716 386.377 61.86 386.857 62.148C387.337 62.436 387.709 62.844 387.973 63.372C388.237 63.9 388.369 64.524 388.369 65.244C388.369 65.412 388.321 65.628 388.225 65.892C388.153 66.132 388.057 66.336 387.937 66.504L389.233 64.848H379.009V67.872H394.129C394.177 67.704 394.201 67.5 394.201 67.26C394.201 66.996 394.201 66.732 394.201 66.468C394.201 64.692 393.853 63.18 393.157 61.932C392.461 60.684 391.453 59.736 390.133 59.088C388.813 58.416 387.193 58.08 385.273 58.08C383.353 58.08 381.685 58.428 380.269 59.124C378.877 59.82 377.809 60.816 377.065 62.112C376.321 63.408 375.949 64.944 375.949 66.72C375.949 68.472 376.333 69.996 377.101 71.292C377.869 72.588 378.949 73.596 380.341 74.316C381.757 75.012 383.425 75.36 385.345 75.36ZM413.715 58.44H408.351V75H413.715V58.44ZM418.503 64.056L420.843 59.412C420.555 58.98 420.135 58.644 419.583 58.404C419.031 58.164 418.455 58.044 417.855 58.044C416.943 58.044 416.067 58.344 415.227 58.944C414.387 59.544 413.703 60.36 413.175 61.392C412.671 62.424 412.419 63.6 412.419 64.92L413.715 66.828C413.715 66.036 413.823 65.364 414.039 64.812C414.255 64.26 414.567 63.84 414.975 63.552C415.383 63.264 415.851 63.12 416.379 63.12C416.859 63.12 417.255 63.204 417.567 63.372C417.903 63.54 418.215 63.768 418.503 64.056ZM427.363 69.816C427.363 69.408 427.459 69.072 427.651 68.808C427.843 68.52 428.131 68.304 428.515 68.16C428.899 68.016 429.415 67.944 430.063 67.944C430.903 67.944 431.695 68.064 432.439 68.304C433.207 68.52 433.879 68.844 434.455 69.276V66.864C434.167 66.552 433.735 66.252 433.159 65.964C432.583 65.676 431.887 65.436 431.071 65.244C430.279 65.052 429.379 64.956 428.371 64.956C426.307 64.956 424.711 65.424 423.583 66.36C422.455 67.272 421.891 68.52 421.891 70.104C421.891 71.232 422.155 72.192 422.683 72.984C423.235 73.776 423.955 74.376 424.843 74.784C425.755 75.168 426.739 75.36 427.795 75.36C428.851 75.36 429.835 75.18 430.747 74.82C431.659 74.436 432.403 73.884 432.979 73.164C433.555 72.42 433.843 71.52 433.843 70.464L433.267 68.304C433.267 69.072 433.099 69.72 432.763 70.248C432.427 70.776 431.995 71.172 431.467 71.436C430.939 71.7 430.363 71.832 429.739 71.832C429.307 71.832 428.911 71.76 428.551 71.616C428.191 71.448 427.903 71.22 427.687 70.932C427.471 70.62 427.363 70.248 427.363 69.816ZM424.951 63.516C425.191 63.372 425.575 63.192 426.103 62.976C426.631 62.736 427.243 62.532 427.939 62.364C428.659 62.196 429.391 62.112 430.135 62.112C430.639 62.112 431.083 62.16 431.467 62.256C431.875 62.352 432.211 62.508 432.475 62.724C432.739 62.94 432.931 63.204 433.051 63.516C433.195 63.804 433.267 64.152 433.267 64.56V75H438.487V63.336C438.487 62.184 438.151 61.212 437.479 60.42C436.807 59.628 435.895 59.028 434.743 58.62C433.591 58.188 432.283 57.972 430.819 57.972C429.259 57.972 427.819 58.176 426.499 58.584C425.179 58.992 424.051 59.424 423.115 59.88L424.951 63.516ZM442.234 52.212C442.234 53.076 442.546 53.784 443.17 54.336C443.794 54.888 444.538 55.164 445.402 55.164C446.29 55.164 447.034 54.888 447.634 54.336C448.258 53.784 448.57 53.076 448.57 52.212C448.57 51.348 448.258 50.652 447.634 50.124C447.034 49.572 446.29 49.296 445.402 49.296C444.538 49.296 443.794 49.572 443.17 50.124C442.546 50.652 442.234 51.348 442.234 52.212ZM442.774 58.44V75H448.03V58.44H442.774ZM450.563 58.44V62.94H461.651V58.44H450.563ZM453.479 52.68V75H458.699V52.68H453.479ZM463.644 52.212C463.644 53.076 463.956 53.784 464.58 54.336C465.204 54.888 465.948 55.164 466.812 55.164C467.7 55.164 468.444 54.888 469.044 54.336C469.668 53.784 469.98 53.076 469.98 52.212C469.98 51.348 469.668 50.652 469.044 50.124C468.444 49.572 467.7 49.296 466.812 49.296C465.948 49.296 465.204 49.572 464.58 50.124C463.956 50.652 463.644 51.348 463.644 52.212ZM464.184 58.44V75H469.44V58.44H464.184ZM484.681 64.92V75H490.333V64.344C490.333 62.352 489.865 60.804 488.929 59.7C487.993 58.596 486.493 58.044 484.429 58.044C483.205 58.044 482.173 58.296 481.333 58.8C480.517 59.304 479.869 60.012 479.389 60.924V58.44H473.917V75H479.389V64.92C479.389 64.272 479.509 63.72 479.749 63.264C479.989 62.808 480.325 62.46 480.757 62.22C481.189 61.98 481.693 61.86 482.269 61.86C483.133 61.86 483.745 62.124 484.105 62.652C484.489 63.18 484.681 63.936 484.681 64.92ZM494.012 76.188C494.132 77.652 494.528 78.936 495.2 80.04C495.872 81.168 496.868 82.044 498.188 82.668C499.532 83.292 501.224 83.604 503.264 83.604C504.968 83.604 506.504 83.292 507.872 82.668C509.24 82.068 510.332 81.108 511.148 79.788C511.988 78.468 512.408 76.752 512.408 74.64V58.44H507.188V74.64C507.188 75.648 506.996 76.488 506.612 77.16C506.252 77.856 505.76 78.372 505.136 78.708C504.512 79.068 503.816 79.248 503.048 79.248C502.352 79.248 501.728 79.128 501.176 78.888C500.624 78.672 500.18 78.336 499.844 77.88C499.532 77.424 499.34 76.86 499.268 76.188H494.012ZM493.652 66.504C493.652 68.352 494.024 69.9 494.768 71.148C495.536 72.396 496.52 73.344 497.72 73.992C498.92 74.616 500.192 74.928 501.536 74.928C502.928 74.928 504.152 74.604 505.208 73.956C506.288 73.284 507.14 72.324 507.764 71.076C508.388 69.804 508.7 68.28 508.7 66.504C508.7 64.704 508.388 63.18 507.764 61.932C507.14 60.684 506.288 59.736 505.208 59.088C504.152 58.416 502.928 58.08 501.536 58.08C500.192 58.08 498.92 58.392 497.72 59.016C496.52 59.64 495.536 60.576 494.768 61.824C494.024 63.072 493.652 64.632 493.652 66.504ZM499.376 66.504C499.376 65.64 499.556 64.908 499.916 64.308C500.276 63.708 500.756 63.252 501.356 62.94C501.956 62.628 502.616 62.472 503.336 62.472C503.792 62.472 504.248 62.556 504.704 62.724C505.16 62.892 505.568 63.144 505.928 63.48C506.312 63.816 506.612 64.236 506.828 64.74C507.068 65.244 507.188 65.832 507.188 66.504C507.188 67.392 506.996 68.136 506.612 68.736C506.228 69.336 505.736 69.792 505.136 70.104C504.56 70.392 503.96 70.536 503.336 70.536C502.616 70.536 501.956 70.38 501.356 70.068C500.756 69.756 500.276 69.3 499.916 68.7C499.556 68.076 499.376 67.344 499.376 66.504ZM517.281 49.8L518.469 66.684H522.861L524.013 49.8H517.281ZM517.281 72.768C517.281 73.68 517.593 74.424 518.217 75C518.865 75.576 519.681 75.864 520.665 75.864C521.649 75.864 522.453 75.576 523.077 75C523.725 74.424 524.049 73.68 524.049 72.768C524.049 71.856 523.725 71.112 523.077 70.536C522.453 69.96 521.649 69.672 520.665 69.672C519.681 69.672 518.865 69.96 518.217 70.536C517.593 71.112 517.281 71.856 517.281 72.768Z" fill="#214B9A"/>
<path d="M429.167 194.667H370.833V186.333H429.167V194.667ZM420.833 144.667C414.917 144.667 409.417 147.875 406.458 153H404.167V132.167H416.667V123.833H404.167V111.333H395.833V123.833H383.333V132.167H395.833V153H393.542C388.958 145.042 378.75 142.292 370.833 146.917C366.996 149.112 364.183 152.738 363.012 157.001C361.841 161.265 362.406 165.819 364.583 169.667C367.667 174.833 373.208 178 379.167 178H420.833C425.254 178 429.493 176.244 432.619 173.118C435.744 169.993 437.5 165.754 437.5 161.333C437.5 156.913 435.744 152.674 432.619 149.548C429.493 146.423 425.254 144.667 420.833 144.667Z" fill="#214B9A"/>
<path d="M686.764 74.7203C688.812 75.4342 690.824 75.3433 692.8 74.4478C694.775 73.5522 696.182 72.1052 696.988 70.0943C696.182 72.1052 696.167 74.1107 696.976 76.1232C697.785 78.1357 699.176 79.5917 701.15 80.4912C699.102 79.7773 697.09 79.8682 695.114 80.7637C694.166 81.1792 693.311 81.7792 692.597 82.5287C691.883 83.2783 691.325 84.1624 690.957 85.1296C691.763 83.1187 691.778 81.1132 690.938 79.0883C690.129 77.0758 688.738 75.6198 686.764 74.7203ZM702.908 55.3374C706.881 56.7155 710.799 56.5275 714.663 54.7734C718.527 53.0194 721.241 50.1933 722.817 46.2643C721.241 50.1933 721.25 54.1115 722.83 58.0498C724.411 61.9881 727.126 64.801 730.968 66.5937C728.35 65.6874 725.714 65.4557 723.002 65.9482C720.334 66.4222 717.912 67.534 715.75 69.2526C713.619 70.9836 712.045 73.1175 711.003 75.7162C712.579 71.7873 712.583 67.8381 711.002 63.8998C709.434 59.9306 706.732 57.0867 702.908 55.3374ZM699.813 92.7767C702.802 93.8319 705.767 93.6925 708.665 92.377C711.563 91.0614 713.602 88.9342 714.793 85.9642C713.602 88.9342 713.605 91.8805 714.79 94.8343C715.976 97.788 717.992 99.9255 720.881 101.228C717.892 100.173 714.958 100.325 712.06 101.64C709.162 102.956 707.123 105.083 705.932 108.053C707.123 105.083 707.12 102.137 705.935 99.1831C704.815 96.3263 702.616 94.0249 699.813 92.7767ZM726.764 86.5642C729.752 87.6194 732.686 87.4676 735.585 86.152C738.483 84.8365 740.49 82.6968 741.694 79.6959C740.503 82.6659 740.506 85.6122 741.691 88.566C742.877 91.5197 744.924 93.6696 747.813 94.9724C744.824 93.9171 741.859 94.0565 738.961 95.3721C736.063 96.6876 734.024 98.8149 732.833 101.785C734.024 98.8149 734.021 95.8685 732.867 92.9272C731.669 90.0044 729.653 87.8669 726.764 86.5642Z" fill="white"/>
<path d="M53.6943 168.624C55.668 167.725 57.0592 166.269 57.868 164.256C58.6768 162.244 58.6933 160.226 57.8866 158.215C58.6933 160.226 60.069 161.685 62.0444 162.581C64.0199 163.476 66.0317 163.567 68.0798 162.853C66.1062 163.753 64.715 165.209 63.9061 167.221C63.5081 168.177 63.3042 169.202 63.3063 170.237C63.3084 171.272 63.5165 172.296 63.9185 173.25C63.1118 171.239 61.7361 169.78 59.7297 168.897C57.7542 168.001 55.7424 167.911 53.6943 168.624ZM51.9664 143.458C55.7899 141.709 58.492 138.865 60.0726 134.927C61.6531 130.988 61.6615 127.07 60.0853 123.141C61.6615 127.07 64.3755 129.896 68.2398 131.65C72.1041 133.404 76.01 133.561 80.0258 132.201C77.5077 133.355 75.442 135.01 73.8226 137.24C72.2216 139.427 71.24 141.903 70.8652 144.64C70.5214 147.364 70.8583 149.994 71.9008 152.593C70.3246 148.664 67.5982 145.807 63.7339 144.053C59.8572 142.268 55.9389 142.08 51.9664 143.458ZM75.6043 172.656C78.4937 171.354 80.5403 169.204 81.7257 166.25C82.9111 163.296 82.9143 160.35 81.7228 157.38C82.9143 160.35 84.953 162.477 87.8512 163.792C90.7493 165.108 93.6835 165.26 96.6721 164.204C93.7828 165.507 91.7671 167.645 90.5816 170.598C89.3962 173.552 89.393 176.499 90.5845 179.468C89.393 176.499 87.3544 174.371 84.4562 173.056C81.6727 171.765 78.4928 171.621 75.6043 172.656ZM90.7891 149.54C93.6785 148.238 95.6942 146.1 96.8796 143.146C98.065 140.192 98.0373 137.258 96.8334 134.258C98.0249 137.228 100.063 139.355 102.962 140.67C105.86 141.986 108.825 142.125 111.814 141.07C108.924 142.373 106.878 144.522 105.692 147.476C104.507 150.43 104.504 153.376 105.695 156.346C104.504 153.376 102.465 151.249 99.5977 149.921C96.7119 148.637 93.7778 148.485 90.7891 149.54Z" fill="white"/>
<defs>
<linearGradient id="paint0_linear_143_168" x1="400" y1="0" x2="400" y2="242" gradientUnits="userSpaceOnUse">
<stop stop-color="white"/>
<stop offset="1" stop-color="white" stop-opacity="0"/>
</linearGradient>
</defs>
</svg>
