<svg width="800" height="242" viewBox="0 0 800 242" fill="none" xmlns="http://www.w3.org/2000/svg">
<rect width="800" height="242" rx="15" fill="#214B9A"/>
<rect width="800" height="242" rx="15" fill="url(#paint0_radial_143_154)" fill-opacity="0.2"/>
<path d="M41.144 91.236H48.056V111H54.14V91.236H61.088V85.8H41.144V91.236ZM65.7849 94.44H60.4209V111H65.7849V94.44ZM70.5729 100.056L72.9129 95.412C72.6249 94.98 72.2049 94.644 71.6529 94.404C71.1009 94.164 70.5249 94.044 69.9249 94.044C69.0129 94.044 68.1369 94.344 67.2969 94.944C66.4569 95.544 65.7729 96.36 65.2449 97.392C64.7409 98.424 64.4889 99.6 64.4889 100.92L65.7849 102.828C65.7849 102.036 65.8929 101.364 66.1089 100.812C66.3249 100.26 66.6369 99.84 67.0449 99.552C67.4529 99.264 67.9209 99.12 68.4489 99.12C68.9289 99.12 69.3249 99.204 69.6369 99.372C69.9729 99.54 70.2849 99.768 70.5729 100.056ZM79.4337 105.816C79.4337 105.408 79.5297 105.072 79.7217 104.808C79.9137 104.52 80.2017 104.304 80.5857 104.16C80.9697 104.016 81.4857 103.944 82.1337 103.944C82.9737 103.944 83.7657 104.064 84.5097 104.304C85.2777 104.52 85.9497 104.844 86.5257 105.276V102.864C86.2377 102.552 85.8057 102.252 85.2297 101.964C84.6537 101.676 83.9577 101.436 83.1417 101.244C82.3497 101.052 81.4497 100.956 80.4417 100.956C78.3777 100.956 76.7817 101.424 75.6537 102.36C74.5257 103.272 73.9617 104.52 73.9617 106.104C73.9617 107.232 74.2257 108.192 74.7537 108.984C75.3057 109.776 76.0257 110.376 76.9137 110.784C77.8257 111.168 78.8097 111.36 79.8657 111.36C80.9217 111.36 81.9057 111.18 82.8177 110.82C83.7297 110.436 84.4737 109.884 85.0497 109.164C85.6257 108.42 85.9137 107.52 85.9137 106.464L85.3377 104.304C85.3377 105.072 85.1697 105.72 84.8337 106.248C84.4977 106.776 84.0657 107.172 83.5377 107.436C83.0097 107.7 82.4337 107.832 81.8097 107.832C81.3777 107.832 80.9817 107.76 80.6217 107.616C80.2617 107.448 79.9737 107.22 79.7577 106.932C79.5417 106.62 79.4337 106.248 79.4337 105.816ZM77.0217 99.516C77.2617 99.372 77.6457 99.192 78.1737 98.976C78.7017 98.736 79.3137 98.532 80.0097 98.364C80.7297 98.196 81.4617 98.112 82.2057 98.112C82.7097 98.112 83.1537 98.16 83.5377 98.256C83.9457 98.352 84.2817 98.508 84.5457 98.724C84.8097 98.94 85.0017 99.204 85.1217 99.516C85.2657 99.804 85.3377 100.152 85.3377 100.56V111H90.5577V99.336C90.5577 98.184 90.2217 97.212 89.5497 96.42C88.8777 95.628 87.9657 95.028 86.8137 94.62C85.6617 94.188 84.3537 93.972 82.8897 93.972C81.3297 93.972 79.8897 94.176 78.5697 94.584C77.2497 94.992 76.1217 95.424 75.1857 95.88L77.0217 99.516ZM99.1999 102.72C99.1999 101.904 99.3919 101.172 99.7759 100.524C100.16 99.876 100.688 99.36 101.36 98.976C102.056 98.592 102.8 98.4 103.592 98.4C104.192 98.4 104.804 98.496 105.428 98.688C106.052 98.88 106.628 99.156 107.156 99.516C107.708 99.876 108.152 100.32 108.488 100.848V95.52C107.912 95.112 107.192 94.776 106.328 94.512C105.464 94.224 104.408 94.08 103.16 94.08C101.336 94.08 99.6919 94.44 98.2279 95.16C96.7879 95.88 95.6479 96.888 94.8079 98.184C93.9919 99.456 93.5839 100.968 93.5839 102.72C93.5839 104.448 93.9919 105.96 94.8079 107.256C95.6479 108.552 96.7879 109.56 98.2279 110.28C99.6919 111 101.336 111.36 103.16 111.36C104.408 111.36 105.464 111.228 106.328 110.964C107.192 110.676 107.912 110.304 108.488 109.848V104.556C108.152 105.084 107.72 105.528 107.192 105.888C106.688 106.248 106.124 106.536 105.5 106.752C104.9 106.944 104.264 107.04 103.592 107.04C102.8 107.04 102.056 106.86 101.36 106.5C100.688 106.14 100.16 105.648 99.7759 105.024C99.3919 104.376 99.1999 103.608 99.1999 102.72ZM112.381 82.92V111H117.601V82.92H112.381ZM123.613 94.44L116.521 101.28L124.441 111H130.849L123.037 101.28L130.129 94.44H123.613ZM160.943 94.44H155.363L150.071 107.688L152.879 107.724L147.515 94.44H141.539L148.703 109.668L144.671 118.92H150.143L160.943 94.44ZM161.261 102.72C161.261 104.448 161.669 105.96 162.485 107.256C163.301 108.552 164.429 109.56 165.869 110.28C167.309 111 168.929 111.36 170.729 111.36C172.529 111.36 174.137 111 175.553 110.28C176.993 109.56 178.121 108.552 178.937 107.256C179.777 105.96 180.197 104.448 180.197 102.72C180.197 100.968 179.777 99.444 178.937 98.148C178.121 96.852 176.993 95.844 175.553 95.124C174.137 94.404 172.529 94.044 170.729 94.044C168.929 94.044 167.309 94.404 165.869 95.124C164.429 95.844 163.301 96.852 162.485 98.148C161.669 99.444 161.261 100.968 161.261 102.72ZM166.841 102.72C166.841 101.856 167.021 101.112 167.381 100.488C167.741 99.864 168.209 99.384 168.785 99.048C169.361 98.712 170.009 98.544 170.729 98.544C171.425 98.544 172.061 98.712 172.637 99.048C173.237 99.384 173.705 99.864 174.041 100.488C174.401 101.112 174.581 101.856 174.581 102.72C174.581 103.584 174.401 104.328 174.041 104.952C173.705 105.552 173.237 106.02 172.637 106.356C172.061 106.692 171.425 106.86 170.729 106.86C170.009 106.86 169.361 106.692 168.785 106.356C168.209 106.02 167.741 105.552 167.381 104.952C167.021 104.328 166.841 103.584 166.841 102.72ZM189.156 104.52V94.44H183.468V105.096C183.468 107.064 183.936 108.612 184.872 109.74C185.832 110.844 187.344 111.396 189.408 111.396C190.632 111.396 191.652 111.144 192.468 110.64C193.284 110.112 193.944 109.404 194.448 108.516V111H199.884V94.44H194.448V104.52C194.448 105.168 194.328 105.72 194.088 106.176C193.848 106.632 193.512 106.98 193.08 107.22C192.672 107.46 192.168 107.58 191.568 107.58C190.68 107.58 190.056 107.316 189.696 106.788C189.336 106.236 189.156 105.48 189.156 104.52ZM209.539 94.44H204.175V111H209.539V94.44ZM214.327 100.056L216.667 95.412C216.379 94.98 215.959 94.644 215.407 94.404C214.855 94.164 214.279 94.044 213.679 94.044C212.767 94.044 211.891 94.344 211.051 94.944C210.211 95.544 209.527 96.36 208.999 97.392C208.495 98.424 208.243 99.6 208.243 100.92L209.539 102.828C209.539 102.036 209.647 101.364 209.863 100.812C210.079 100.26 210.391 99.84 210.799 99.552C211.207 99.264 211.675 99.12 212.203 99.12C212.683 99.12 213.079 99.204 213.391 99.372C213.727 99.54 214.039 99.768 214.327 100.056ZM235.169 118.92V94.44H229.733V118.92H235.169ZM248.705 102.72C248.705 100.776 248.321 99.156 247.553 97.86C246.809 96.54 245.837 95.544 244.637 94.872C243.461 94.2 242.189 93.864 240.821 93.864C239.381 93.864 238.133 94.236 237.077 94.98C236.045 95.7 235.253 96.72 234.701 98.04C234.149 99.36 233.873 100.92 233.873 102.72C233.873 104.496 234.149 106.056 234.701 107.4C235.253 108.72 236.045 109.752 237.077 110.496C238.133 111.216 239.381 111.576 240.821 111.576C242.189 111.576 243.461 111.24 244.637 110.568C245.837 109.896 246.809 108.9 247.553 107.58C248.321 106.26 248.705 104.64 248.705 102.72ZM242.981 102.72C242.981 103.584 242.801 104.316 242.441 104.916C242.081 105.516 241.601 105.972 241.001 106.284C240.401 106.596 239.741 106.752 239.021 106.752C238.397 106.752 237.785 106.608 237.185 106.32C236.609 106.008 236.129 105.552 235.745 104.952C235.361 104.352 235.169 103.608 235.169 102.72C235.169 101.832 235.361 101.088 235.745 100.488C236.129 99.888 236.609 99.444 237.185 99.156C237.785 98.844 238.397 98.688 239.021 98.688C239.741 98.688 240.401 98.844 241.001 99.156C241.601 99.468 242.081 99.924 242.441 100.524C242.801 101.124 242.981 101.856 242.981 102.72ZM257.351 94.44H251.987V111H257.351V94.44ZM262.139 100.056L264.479 95.412C264.191 94.98 263.771 94.644 263.219 94.404C262.667 94.164 262.091 94.044 261.491 94.044C260.579 94.044 259.703 94.344 258.863 94.944C258.023 95.544 257.339 96.36 256.811 97.392C256.307 98.424 256.055 99.6 256.055 100.92L257.351 102.828C257.351 102.036 257.459 101.364 257.675 100.812C257.891 100.26 258.203 99.84 258.611 99.552C259.019 99.264 259.487 99.12 260.015 99.12C260.495 99.12 260.891 99.204 261.203 99.372C261.539 99.54 261.851 99.768 262.139 100.056ZM265.289 102.72C265.289 104.448 265.697 105.96 266.513 107.256C267.329 108.552 268.457 109.56 269.897 110.28C271.337 111 272.957 111.36 274.757 111.36C276.557 111.36 278.165 111 279.581 110.28C281.021 109.56 282.149 108.552 282.965 107.256C283.805 105.96 284.225 104.448 284.225 102.72C284.225 100.968 283.805 99.444 282.965 98.148C282.149 96.852 281.021 95.844 279.581 95.124C278.165 94.404 276.557 94.044 274.757 94.044C272.957 94.044 271.337 94.404 269.897 95.124C268.457 95.844 267.329 96.852 266.513 98.148C265.697 99.444 265.289 100.968 265.289 102.72ZM270.869 102.72C270.869 101.856 271.049 101.112 271.409 100.488C271.769 99.864 272.237 99.384 272.813 99.048C273.389 98.712 274.037 98.544 274.757 98.544C275.453 98.544 276.089 98.712 276.665 99.048C277.265 99.384 277.733 99.864 278.069 100.488C278.429 101.112 278.609 101.856 278.609 102.72C278.609 103.584 278.429 104.328 278.069 104.952C277.733 105.552 277.265 106.02 276.665 106.356C276.089 106.692 275.453 106.86 274.757 106.86C274.037 106.86 273.389 106.692 272.813 106.356C272.237 106.02 271.769 105.552 271.409 104.952C271.049 104.328 270.869 103.584 270.869 102.72ZM286.883 112.188C287.003 113.652 287.399 114.936 288.071 116.04C288.743 117.168 289.739 118.044 291.059 118.668C292.403 119.292 294.095 119.604 296.135 119.604C297.839 119.604 299.375 119.292 300.743 118.668C302.111 118.068 303.203 117.108 304.019 115.788C304.859 114.468 305.279 112.752 305.279 110.64V94.44H300.059V110.64C300.059 111.648 299.867 112.488 299.483 113.16C299.123 113.856 298.631 114.372 298.007 114.708C297.383 115.068 296.687 115.248 295.919 115.248C295.223 115.248 294.599 115.128 294.047 114.888C293.495 114.672 293.051 114.336 292.715 113.88C292.403 113.424 292.211 112.86 292.139 112.188H286.883ZM286.523 102.504C286.523 104.352 286.895 105.9 287.639 107.148C288.407 108.396 289.391 109.344 290.591 109.992C291.791 110.616 293.063 110.928 294.407 110.928C295.799 110.928 297.023 110.604 298.079 109.956C299.159 109.284 300.011 108.324 300.635 107.076C301.259 105.804 301.571 104.28 301.571 102.504C301.571 100.704 301.259 99.18 300.635 97.932C300.011 96.684 299.159 95.736 298.079 95.088C297.023 94.416 295.799 94.08 294.407 94.08C293.063 94.08 291.791 94.392 290.591 95.016C289.391 95.64 288.407 96.576 287.639 97.824C286.895 99.072 286.523 100.632 286.523 102.504ZM292.247 102.504C292.247 101.64 292.427 100.908 292.787 100.308C293.147 99.708 293.627 99.252 294.227 98.94C294.827 98.628 295.487 98.472 296.207 98.472C296.663 98.472 297.119 98.556 297.575 98.724C298.031 98.892 298.439 99.144 298.799 99.48C299.183 99.816 299.483 100.236 299.699 100.74C299.939 101.244 300.059 101.832 300.059 102.504C300.059 103.392 299.867 104.136 299.483 104.736C299.099 105.336 298.607 105.792 298.007 106.104C297.431 106.392 296.831 106.536 296.207 106.536C295.487 106.536 294.827 106.38 294.227 106.068C293.627 105.756 293.147 105.3 292.787 104.7C292.427 104.076 292.247 103.344 292.247 102.504ZM314.832 94.44H309.468V111H314.832V94.44ZM319.62 100.056L321.96 95.412C321.672 94.98 321.252 94.644 320.7 94.404C320.148 94.164 319.572 94.044 318.972 94.044C318.06 94.044 317.184 94.344 316.344 94.944C315.504 95.544 314.82 96.36 314.292 97.392C313.788 98.424 313.536 99.6 313.536 100.92L314.832 102.828C314.832 102.036 314.94 101.364 315.156 100.812C315.372 100.26 315.684 99.84 316.092 99.552C316.5 99.264 316.968 99.12 317.496 99.12C317.976 99.12 318.372 99.204 318.684 99.372C319.02 99.54 319.332 99.768 319.62 100.056ZM332.165 111.36C334.277 111.36 336.065 110.952 337.529 110.136C339.017 109.32 340.193 108.096 341.057 106.464L336.197 105.276C335.789 105.996 335.237 106.536 334.541 106.896C333.869 107.256 333.053 107.436 332.093 107.436C331.253 107.436 330.545 107.256 329.969 106.896C329.393 106.512 328.961 105.96 328.673 105.24C328.385 104.52 328.241 103.656 328.241 102.648C328.265 101.544 328.409 100.632 328.673 99.912C328.961 99.168 329.381 98.616 329.933 98.256C330.485 97.896 331.169 97.716 331.985 97.716C332.633 97.716 333.197 97.86 333.677 98.148C334.157 98.436 334.529 98.844 334.793 99.372C335.057 99.9 335.189 100.524 335.189 101.244C335.189 101.412 335.141 101.628 335.045 101.892C334.973 102.132 334.877 102.336 334.757 102.504L336.053 100.848H325.829V103.872H340.949C340.997 103.704 341.021 103.5 341.021 103.26C341.021 102.996 341.021 102.732 341.021 102.468C341.021 100.692 340.673 99.18 339.977 97.932C339.281 96.684 338.273 95.736 336.953 95.088C335.633 94.416 334.013 94.08 332.093 94.08C330.173 94.08 328.505 94.428 327.089 95.124C325.697 95.82 324.629 96.816 323.885 98.112C323.141 99.408 322.769 100.944 322.769 102.72C322.769 104.472 323.153 105.996 323.921 107.292C324.689 108.588 325.769 109.596 327.161 110.316C328.577 111.012 330.245 111.36 332.165 111.36ZM345.278 104.988L343.01 108.588C343.754 109.164 344.558 109.692 345.422 110.172C346.286 110.628 347.222 110.988 348.23 111.252C349.262 111.54 350.378 111.684 351.578 111.684C353.546 111.684 355.07 111.24 356.15 110.352C357.254 109.44 357.806 108.096 357.806 106.32C357.806 105.288 357.578 104.46 357.122 103.836C356.69 103.212 356.102 102.696 355.358 102.288C354.638 101.88 353.846 101.52 352.982 101.208C352.166 100.896 351.47 100.644 350.894 100.452C350.342 100.236 349.91 100.008 349.598 99.768C349.31 99.528 349.166 99.228 349.166 98.868C349.166 98.556 349.286 98.304 349.526 98.112C349.79 97.92 350.174 97.824 350.678 97.824C351.422 97.824 352.238 98.04 353.126 98.472C354.014 98.88 354.806 99.408 355.502 100.056L357.446 96.528C356.798 96.048 356.102 95.628 355.358 95.268C354.638 94.908 353.858 94.62 353.018 94.404C352.202 94.188 351.314 94.08 350.354 94.08C349.154 94.08 348.086 94.26 347.15 94.62C346.238 94.98 345.506 95.508 344.954 96.204C344.426 96.9 344.162 97.752 344.162 98.76C344.162 99.816 344.39 100.68 344.846 101.352C345.302 102.024 345.878 102.564 346.574 102.972C347.294 103.356 348.05 103.692 348.842 103.98C349.73 104.244 350.426 104.496 350.93 104.736C351.458 104.976 351.83 105.228 352.046 105.492C352.262 105.732 352.37 106.032 352.37 106.392C352.37 106.776 352.238 107.088 351.974 107.328C351.71 107.568 351.302 107.688 350.75 107.688C350.366 107.688 349.91 107.616 349.382 107.472C348.854 107.304 348.242 107.028 347.546 106.644C346.874 106.236 346.118 105.684 345.278 104.988ZM361.696 104.988L359.428 108.588C360.172 109.164 360.976 109.692 361.84 110.172C362.704 110.628 363.64 110.988 364.648 111.252C365.68 111.54 366.796 111.684 367.996 111.684C369.964 111.684 371.488 111.24 372.568 110.352C373.672 109.44 374.224 108.096 374.224 106.32C374.224 105.288 373.996 104.46 373.54 103.836C373.108 103.212 372.52 102.696 371.776 102.288C371.056 101.88 370.264 101.52 369.4 101.208C368.584 100.896 367.888 100.644 367.312 100.452C366.76 100.236 366.328 100.008 366.016 99.768C365.728 99.528 365.584 99.228 365.584 98.868C365.584 98.556 365.704 98.304 365.944 98.112C366.208 97.92 366.592 97.824 367.096 97.824C367.84 97.824 368.656 98.04 369.544 98.472C370.432 98.88 371.224 99.408 371.92 100.056L373.864 96.528C373.216 96.048 372.52 95.628 371.776 95.268C371.056 94.908 370.276 94.62 369.436 94.404C368.62 94.188 367.732 94.08 366.772 94.08C365.572 94.08 364.504 94.26 363.568 94.62C362.656 94.98 361.924 95.508 361.372 96.204C360.844 96.9 360.58 97.752 360.58 98.76C360.58 99.816 360.808 100.68 361.264 101.352C361.72 102.024 362.296 102.564 362.992 102.972C363.712 103.356 364.468 103.692 365.26 103.98C366.148 104.244 366.844 104.496 367.348 104.736C367.876 104.976 368.248 105.228 368.464 105.492C368.68 105.732 368.788 106.032 368.788 106.392C368.788 106.776 368.656 107.088 368.392 107.328C368.128 107.568 367.72 107.688 367.168 107.688C366.784 107.688 366.328 107.616 365.8 107.472C365.272 107.304 364.66 107.028 363.964 106.644C363.292 106.236 362.536 105.684 361.696 104.988ZM377.898 85.8L379.086 102.684H383.478L384.63 85.8H377.898ZM377.898 108.768C377.898 109.68 378.21 110.424 378.834 111C379.482 111.576 380.298 111.864 381.282 111.864C382.266 111.864 383.07 111.576 383.694 111C384.342 110.424 384.666 109.68 384.666 108.768C384.666 107.856 384.342 107.112 383.694 106.536C383.07 105.96 382.266 105.672 381.282 105.672C380.298 105.672 379.482 105.96 378.834 106.536C378.21 107.112 377.898 107.856 377.898 108.768Z" fill="white"/>
<path d="M658.641 101.602L648.792 96.9875C647.981 96.613 647.293 96.0099 646.811 95.2502C646.329 94.4905 646.072 93.6062 646.072 92.7029C646.072 91.7996 646.329 90.9154 646.811 90.1557C647.293 89.396 647.981 88.7929 648.792 88.4183L658.641 83.8042L663.194 73.9167C663.563 73.0947 664.158 72.3977 664.908 71.909C665.658 71.4203 666.53 71.1605 667.422 71.1605C668.313 71.1605 669.185 71.4203 669.935 71.909C670.685 72.3977 671.28 73.0947 671.649 73.9167L676.202 83.8984L685.958 88.5125C686.77 88.887 687.457 89.4901 687.939 90.2498C688.422 91.0095 688.678 91.8938 688.678 92.7971C688.678 93.7004 688.422 94.5847 687.939 95.3444C687.457 96.1041 686.77 96.7072 685.958 97.0817L676.109 101.696L671.556 111.583C671.187 112.405 670.592 113.102 669.842 113.591C669.092 114.08 668.22 114.34 667.329 114.34C666.437 114.34 665.565 114.08 664.815 113.591C664.066 113.102 663.47 112.405 663.101 111.583L658.641 101.602V101.602ZM569.348 130.417L573.901 120.435L583.75 115.821C584.561 115.446 585.249 114.843 585.731 114.084C586.213 113.324 586.47 112.44 586.47 111.536C586.47 110.633 586.213 109.749 585.731 108.989C585.249 108.229 584.561 107.626 583.75 107.252L573.901 102.638L569.348 92.75C568.99 91.9289 568.404 91.2309 567.662 90.7409C566.919 90.2509 566.053 89.9901 565.167 89.9901C564.281 89.9901 563.414 90.2509 562.672 90.7409C561.929 91.2309 561.344 91.9289 560.985 92.75L556.433 102.732L546.583 107.346C545.772 107.72 545.085 108.323 544.602 109.083C544.12 109.843 543.864 110.727 543.864 111.63C543.864 112.534 544.12 113.418 544.602 114.178C545.085 114.937 545.772 115.54 546.583 115.915L556.433 120.529L560.985 130.417C562.565 134.089 567.768 134.089 569.348 130.417V130.417ZM611.253 83.2392L617.107 70.0559L630.115 64.1233C630.927 63.7488 631.614 63.1457 632.097 62.386C632.579 61.6263 632.835 60.7421 632.835 59.8388C632.835 58.9354 632.579 58.0512 632.097 57.2915C631.614 56.5318 630.927 55.9287 630.115 55.5542L617.107 49.6217L611.253 36.4383C610.884 35.6163 610.289 34.9194 609.539 34.4307C608.79 33.942 607.917 33.6821 607.026 33.6821C606.134 33.6821 605.262 33.942 604.512 34.4307C603.763 34.9194 603.168 35.6163 602.798 36.4383L596.944 49.6217L583.936 55.5542C583.125 55.9287 582.437 56.5318 581.955 57.2915C581.473 58.0512 581.216 58.9354 581.216 59.8388C581.216 60.7421 581.473 61.6263 581.955 62.386C582.437 63.1457 583.125 63.7488 583.936 64.1233L596.944 70.0559L602.798 83.2392C604.378 86.9117 609.581 86.9117 611.253 83.2392V83.2392ZM735.576 85.8759C734.683 84.9736 733.618 84.2651 732.446 83.7933C731.274 83.3215 730.02 83.0964 728.76 83.1316C727.499 83.1668 726.259 83.4617 725.115 83.9983C723.97 84.5348 722.946 85.3018 722.103 86.2525L662.729 153.864L632.16 122.883C631.3 122.01 630.279 121.318 629.155 120.845C628.031 120.373 626.826 120.129 625.609 120.129C624.392 120.129 623.187 120.373 622.063 120.845C620.939 121.318 619.918 122.01 619.058 122.883L562.937 179.854C559.127 183.715 559.127 190.118 562.937 193.979C566.746 197.84 573.065 197.84 576.874 193.979L625.655 144.448L655.853 175.052C659.663 178.913 665.795 178.724 669.326 174.675L735.948 98.6825C739.2 95.01 739.014 89.36 735.576 85.8759V85.8759Z" fill="white"/>
<defs>
<radialGradient id="paint0_radial_143_154" cx="0" cy="0" r="1" gradientUnits="userSpaceOnUse" gradientTransform="translate(635.5 88.5) rotate(89.0416) scale(269.038 889.381)">
<stop stop-color="white"/>
<stop offset="1" stop-color="white" stop-opacity="0"/>
</radialGradient>
</defs>
</svg>
