<?xml version="1.0" encoding="UTF-8"?>
<svg xmlns="http://www.w3.org/2000/svg" xmlns:xlink="http://www.w3.org/1999/xlink" viewBox="0 0 30 30" width="30px" height="30px">
<g id="surface24407560">
<path style="fill-rule:nonzero;fill:rgb(32.941177%,92.156863%,85.882354%);fill-opacity:1;stroke-width:10;stroke-linecap:butt;stroke-linejoin:round;stroke:rgb(0%,0%,0%);stroke-opacity:1;stroke-miterlimit:10;" d="M 44.180181 24.613545 L 86.000003 66.433366 L 127.819824 24.613545 C 130.054653 22.378716 133.668418 22.378716 135.927021 24.613545 L 147.386461 36.072984 C 149.621289 38.307813 149.621289 41.945353 147.386461 44.180181 L 105.566639 86.000003 L 147.386461 127.819824 C 149.621289 130.054653 149.621289 133.668418 147.386461 135.927021 L 135.927021 147.386461 C 133.692193 149.621289 130.054653 149.621289 127.819824 147.386461 L 86.000003 105.566639 L 44.180181 147.386461 C 41.945353 149.621289 38.331587 149.621289 36.072984 147.386461 L 24.613545 135.927021 C 22.378716 133.692193 22.378716 130.054653 24.613545 127.819824 L 66.433366 86.000003 L 24.613545 44.180181 C 22.378716 41.945353 22.378716 38.331587 24.613545 36.072984 L 36.072984 24.613545 C 37.190398 23.49613 38.664434 22.925536 40.13847 22.925536 C 41.588731 22.925536 43.062767 23.49613 44.180181 24.613545 Z M 44.180181 24.613545 " transform="matrix(0.164302,0,0,0.164302,0.87,0.87)"/>
<path style=" stroke:none;fill-rule:nonzero;fill:rgb(32.941177%,92.156863%,85.882354%);fill-opacity:1;" d="M 7.464844 4.636719 C 7.222656 4.636719 6.980469 4.730469 6.796875 4.914062 L 4.914062 6.796875 C 4.546875 7.167969 4.546875 7.761719 4.914062 8.128906 L 11.785156 15 L 4.914062 21.871094 C 4.546875 22.238281 4.546875 22.835938 4.914062 23.203125 L 6.796875 25.085938 C 7.167969 25.453125 7.761719 25.453125 8.128906 25.085938 L 15 18.214844 L 21.871094 25.085938 C 22.238281 25.453125 22.835938 25.453125 23.203125 25.085938 L 25.085938 23.203125 C 25.453125 22.832031 25.453125 22.238281 25.085938 21.871094 L 18.214844 15 L 25.085938 8.128906 C 25.453125 7.761719 25.453125 7.164062 25.085938 6.796875 L 23.203125 4.914062 C 22.832031 4.546875 22.238281 4.546875 21.871094 4.914062 L 15 11.785156 L 8.128906 4.914062 C 7.945312 4.730469 7.703125 4.636719 7.464844 4.636719 Z M 7.464844 4.636719 "/>
</g>
</svg>
